<svg xmlns="http://www.w3.org/2000/svg" width="14.082" height="14.082" viewBox="0 0 14.082 14.082">
  <path id="arrow-up-right-from-square-solid" d="M8.8,0a.88.88,0,1,0,0,1.76h2.275L5.539,7.3A.881.881,0,0,0,6.785,8.546l5.537-5.539V5.281a.88.88,0,1,0,1.76,0V.88A.879.879,0,0,0,13.2,0ZM2.2.88A2.2,2.2,0,0,0,0,3.08v8.8a2.2,2.2,0,0,0,2.2,2.2H11a2.2,2.2,0,0,0,2.2-2.2V8.8a.88.88,0,1,0-1.76,0v3.08a.441.441,0,0,1-.44.44H2.2a.441.441,0,0,1-.44-.44V3.08a.441.441,0,0,1,.44-.44h3.08a.88.88,0,0,0,0-1.76Z"/>
</svg>
