<svg width="40" height="40" viewBox="0 0 40 40" fill="none" xmlns="http://www.w3.org/2000/svg">
<path d="M13.2622 20.2318C13.3371 20.0014 13.6629 20.0014 13.7378 20.2318L14.791 23.4732C14.8244 23.5762 14.9204 23.6459 15.0287 23.6459H18.4369C18.6791 23.6459 18.7798 23.9558 18.5839 24.0982L15.8266 26.1014C15.739 26.1651 15.7023 26.2779 15.7358 26.3809L16.7889 29.6223C16.8638 29.8527 16.6002 30.0442 16.4042 29.9018L13.6469 27.8986C13.5593 27.8349 13.4407 27.8349 13.3531 27.8986L10.5958 29.9018C10.3998 30.0442 10.1362 29.8527 10.2111 29.6223L11.2642 26.3809C11.2977 26.2779 11.261 26.1651 11.1734 26.1014L8.41614 24.0982C8.22021 23.9558 8.3209 23.6459 8.56308 23.6459H11.9713C12.0796 23.6459 12.1756 23.5762 12.209 23.4732L13.2622 20.2318Z" fill="white"/>
<path d="M26.2622 20.2318C26.3371 20.0014 26.6629 20.0014 26.7378 20.2318L27.791 23.4732C27.8244 23.5762 27.9204 23.6459 28.0287 23.6459H31.4369C31.6791 23.6459 31.7798 23.9558 31.5839 24.0982L28.8266 26.1014C28.739 26.1651 28.7023 26.2779 28.7358 26.3809L29.7889 29.6223C29.8638 29.8527 29.6002 30.0442 29.4042 29.9018L26.6469 27.8986C26.5593 27.8349 26.4407 27.8349 26.3531 27.8986L23.5958 29.9018C23.3998 30.0442 23.1362 29.8527 23.2111 29.6223L24.2642 26.3809C24.2977 26.2779 24.261 26.1651 24.1734 26.1014L21.4161 24.0982C21.2202 23.9558 21.3209 23.6459 21.5631 23.6459H24.9713C25.0796 23.6459 25.1756 23.5762 25.209 23.4732L26.2622 20.2318Z" fill="white"/>
<path d="M2 6.5H38C38.8284 6.5 39.5 7.17157 39.5 8V38C39.5 38.8284 38.8284 39.5 38 39.5H2C1.17157 39.5 0.5 38.8284 0.5 38V8C0.5 7.17157 1.17157 6.5 2 6.5Z" stroke="white"/>
<path opacity="0.5" d="M5 13H35" stroke="white" stroke-linecap="round"/>
</svg>
