<svg width="40" height="40" viewBox="0 0 40 40" fill="none" xmlns="http://www.w3.org/2000/svg">
<path d="M2 6.5H38C38.8284 6.5 39.5 7.17157 39.5 8V38C39.5 38.8284 38.8284 39.5 38 39.5H2C1.17157 39.5 0.5 38.8284 0.5 38V8C0.5 7.17157 1.17157 6.5 2 6.5Z" stroke="white"/>
<path opacity="0.5" d="M16 24C17.1046 24 18 23.1046 18 22C18 20.8954 17.1046 20 16 20C14.8954 20 14 20.8954 14 22C14 23.1046 14.8954 24 16 24Z" fill="white"/>
<path d="M24 19.5C25.3807 19.5 26.5 20.6193 26.5 22C26.5 23.3807 25.3807 24.5 24 24.5C22.6193 24.5 21.5 23.3807 21.5 22C21.5 20.6193 22.6193 19.5 24 19.5Z" stroke="white"/>
<path opacity="0.5" d="M32 24C33.1046 24 34 23.1046 34 22C34 20.8954 33.1046 20 32 20C30.8954 20 30 20.8954 30 22C30 23.1046 30.8954 24 32 24Z" fill="white"/>
<path opacity="0.5" d="M8 32C9.10457 32 10 31.1046 10 30C10 28.8954 9.10457 28 8 28C6.89543 28 6 28.8954 6 30C6 31.1046 6.89543 32 8 32Z" fill="white"/>
<path opacity="0.5" d="M16 32C17.1046 32 18 31.1046 18 30C18 28.8954 17.1046 28 16 28C14.8954 28 14 28.8954 14 30C14 31.1046 14.8954 32 16 32Z" fill="white"/>
<path opacity="0.5" d="M24 32C25.1046 32 26 31.1046 26 30C26 28.8954 25.1046 28 24 28C22.8954 28 22 28.8954 22 30C22 31.1046 22.8954 32 24 32Z" fill="white"/>
<path opacity="0.5" d="M32 32C33.1046 32 34 31.1046 34 30C34 28.8954 33.1046 28 32 28C30.8954 28 30 28.8954 30 30C30 31.1046 30.8954 32 32 32Z" fill="white"/>
<path opacity="0.5" d="M5 13H35" stroke="white" stroke-linecap="round"/>
</svg>
