<svg width="40" height="40" viewBox="0 0 40 40" fill="none" xmlns="http://www.w3.org/2000/svg">
<path opacity="0.5" d="M34.8838 11.9912C38.04 14.533 40 18.0774 40 22C40 26.6668 37.2266 30.799 32.9639 33.3428C32.7225 33.4868 32.5457 33.7203 32.4824 33.9941L31.3154 39.0508C31.142 39.8005 30.222 40.0815 29.6592 39.5566L26.0059 36.1494C25.7881 35.9463 25.4915 35.8514 25.1953 35.8828C24.4768 35.9594 23.7438 36 23 36C19.2055 36 15.7017 34.9756 12.873 33.2451L14.8574 31.3945C15.5601 31.4627 16.2749 31.5 17 31.5C26.9317 31.5 35.5 24.8197 35.5 16C35.5 14.6041 35.2845 13.262 34.8838 11.9912Z" fill="white"/>
<mask id="path-2-inside-1_1037_2145" fill="white">
<path d="M17 2C26.3888 2 34 8.26801 34 16C34 23.732 26.3888 30 17 30C16.2562 30 15.5236 29.9599 14.8051 29.8833C14.5088 29.8517 14.2118 29.9458 13.9939 30.149L10.341 33.5566C9.77804 34.0817 8.8577 33.8004 8.68451 33.0503L7.51723 27.9944C7.454 27.7205 7.27751 27.4871 7.03612 27.3431C2.77329 24.7993 0 20.6668 0 16C3.91156e-08 8.26801 7.61116 2 17 2Z"/>
</mask>
<path d="M34 16H35H34ZM0 16H-1H0ZM7.03612 27.3431L7.54856 26.4844L7.03612 27.3431ZM10.341 33.5566L9.65888 32.8253L10.341 33.5566ZM14.8051 29.8833L14.9111 28.8889L14.8051 29.8833ZM13.9939 30.149L13.3118 29.4178L13.9939 30.149ZM17 2V3C26.027 3 33 8.99316 33 16H34H35C35 7.54287 26.7507 1 17 1V2ZM34 16H33C33 23.0068 26.027 29 17 29V30V31C26.7507 31 35 24.4571 35 16H34ZM17 30V29C16.2922 29 15.595 28.9618 14.9111 28.8889L14.8051 29.8833L14.6991 30.8776C15.4523 30.9579 16.2202 31 17 31V30ZM13.9939 30.149L13.3118 29.4178L9.65888 32.8253L10.341 33.5566L11.0231 34.2878L14.676 30.8803L13.9939 30.149ZM8.68451 33.0503L9.65888 32.8253L8.4916 27.7694L7.51723 27.9944L6.54286 28.2194L7.71014 33.2753L8.68451 33.0503ZM7.03612 27.3431L7.54856 26.4844C3.52146 24.0812 1 20.2434 1 16H0H-1C-1 21.0902 2.02512 25.5174 6.52369 28.2018L7.03612 27.3431ZM0 16H1C1 8.99316 7.97305 3 17 3V2V1C7.24927 1 -1 7.54287 -1 16H0ZM7.51723 27.9944L8.4916 27.7694C8.36409 27.2171 8.012 26.7609 7.54856 26.4844L7.03612 27.3431L6.52369 28.2018C6.53264 28.2072 6.53812 28.2128 6.54092 28.2166C6.5435 28.2201 6.54326 28.2211 6.54286 28.2194L7.51723 27.9944ZM10.341 33.5566L9.65888 32.8253L9.65888 32.8253L8.68451 33.0503L7.71014 33.2753C8.05652 34.7755 9.89721 35.3381 11.0231 34.2878L10.341 33.5566ZM14.8051 29.8833L14.9111 28.8889C14.3385 28.8279 13.7505 29.0085 13.3118 29.4178L13.9939 30.149L14.676 30.8803C14.675 30.8813 14.6753 30.8804 14.6789 30.8792C14.6829 30.8779 14.6899 30.8767 14.6991 30.8776L14.8051 29.8833Z" fill="white" mask="url(#path-2-inside-1_1037_2145)"/>
<circle cx="12" cy="16" r="1.5" fill="white"/>
<circle cx="17" cy="16" r="1.5" fill="white"/>
<circle cx="22" cy="16" r="1.5" fill="white"/>
</svg>
