<svg width="40" height="40" viewBox="0 0 40 40" fill="none" xmlns="http://www.w3.org/2000/svg">
<path d="M30.9648 19.6123C31.6276 21.4119 32 23.4032 32 25.5C32 31.1924 29.2853 36.1191 25.335 38.4922L25.0312 38.668C23.5011 39.523 21.7966 40 20 40C18.2034 40 16.4989 39.523 14.9688 38.668L14.665 38.4922C10.7147 36.1191 8 31.1924 8 25.5C8 23.4033 8.37152 21.4118 9.03418 19.6123C9.28149 19.766 9.57284 19.9333 9.90918 20.1074C9.32617 21.7468 9 23.5663 9 25.5C9 30.8928 11.572 35.4675 15.1797 37.6348C16.6421 38.5133 18.2772 39 20 39C21.7228 39 23.3579 38.5133 24.8203 37.6348C28.428 35.4675 31 30.8928 31 25.5C31 23.5662 30.6729 21.7468 30.0898 20.1074C30.4262 19.9333 30.7175 19.7659 30.9648 19.6123Z" fill="white"/>
<g opacity="0.5">
<path d="M31 16.8652C31 17.4287 30.7616 17.9646 30.2871 18.2686C28.9466 19.127 25.6635 20.75 20 20.75C14.3365 20.75 11.0534 19.127 9.71289 18.2686C9.23838 17.9646 9 17.4287 9 16.8652V14.375L18.9912 16.5479C19.656 16.6924 20.344 16.6924 21.0088 16.5479L31 14.375V16.8652Z" fill="white"/>
<path d="M19.1503 6.18472C19.7102 6.063 20.2898 6.063 20.8497 6.18472L38.505 10.0228C39.5551 10.2511 39.5551 11.7489 38.505 11.9772L20.8497 15.8153C20.2898 15.937 19.7102 15.937 19.1503 15.8153L1.49501 11.9772C0.444912 11.7489 0.444918 10.2511 1.49501 10.0228L19.1503 6.18472Z" fill="white"/>
<path d="M3.00024 13C3.27623 13.0002 3.50024 13.224 3.50024 13.5V21H3.59009C3.82843 21 4.03358 21.1686 4.08032 21.4023L4.88013 25.4023C4.94177 25.7116 4.7053 26 4.38989 26H1.60962C1.29438 25.9998 1.05783 25.7115 1.11938 25.4023L1.91919 21.4023C1.9659 21.1688 2.17128 21.0002 2.40942 21H2.50024V13.5C2.50024 13.2239 2.7241 13 3.00024 13Z" fill="white"/>
</g>
</svg>
