<svg width="40" height="40" viewBox="0 0 40 40" fill="none" xmlns="http://www.w3.org/2000/svg">
<path d="M19.7622 20.2318C19.8371 20.0014 20.1629 20.0014 20.2378 20.2318L21.291 23.4732C21.3244 23.5762 21.4204 23.6459 21.5287 23.6459H24.9369C25.1791 23.6459 25.2798 23.9558 25.0839 24.0982L22.3266 26.1014C22.239 26.1651 22.2023 26.2779 22.2358 26.3809L23.2889 29.6223C23.3638 29.8527 23.1002 30.0442 22.9042 29.9018L20.1469 27.8986C20.0593 27.8349 19.9407 27.8349 19.8531 27.8986L17.0958 29.9018C16.8998 30.0442 16.6362 29.8527 16.7111 29.6223L17.7642 26.3809C17.7977 26.2779 17.761 26.1651 17.6734 26.1014L14.9161 24.0982C14.7202 23.9558 14.8209 23.6459 15.0631 23.6459H18.4713C18.5796 23.6459 18.6756 23.5762 18.709 23.4732L19.7622 20.2318Z" fill="white"/>
<path d="M2 6.5H38C38.8284 6.5 39.5 7.17157 39.5 8V38C39.5 38.8284 38.8284 39.5 38 39.5H2C1.17157 39.5 0.5 38.8284 0.5 38V8C0.5 7.17157 1.17157 6.5 2 6.5Z" stroke="white"/>
<path opacity="0.5" d="M5 13H35" stroke="white" stroke-linecap="round"/>
</svg>
