<svg width="40" height="40" viewBox="0 0 40 40" fill="none" xmlns="http://www.w3.org/2000/svg">
<g opacity="0.5">
<path d="M12 39C12 38.4477 12.4477 38 13 38H27C27.5523 38 28 38.4477 28 39V39.75C28 39.8881 27.8881 40 27.75 40H12.25C12.1119 40 12 39.8881 12 39.75V39Z" fill="#888B8D"/>
<rect x="17" y="36" width="6" height="2" fill="#888B8D"/>
</g>
<path d="M2 10.5H38C38.8284 10.5 39.5 11.1716 39.5 12V34C39.5 34.8284 38.8284 35.5 38 35.5H2C1.17157 35.5 0.5 34.8284 0.5 34V12C0.5 11.1716 1.17157 10.5 2 10.5Z" stroke="#888B8D"/>
<path opacity="0.5" d="M26.5 22.134C27.1667 22.5189 27.1667 23.4811 26.5 23.866L17.5 29.0622C16.8333 29.4471 16 28.966 16 28.1962L16 17.8038C16 17.034 16.8333 16.5529 17.5 16.9378L26.5 22.134Z" fill="#888B8D"/>
</svg>
