<svg width="513" height="104" viewBox="0 0 513 104" fill="none" xmlns="http://www.w3.org/2000/svg">
<path d="M152.501 21.9082C152.613 21.9076 152.724 21.9309 152.827 21.9766C152.929 22.0223 153.021 22.0893 153.095 22.1732L154.752 23.9732C153.847 25.0998 152.687 25.9951 151.368 26.5852C149.842 27.2257 148.197 27.5348 146.543 27.4922C144.992 27.5165 143.453 27.2242 142.019 26.6332C140.718 26.0878 139.548 25.2721 138.587 24.2402C137.616 23.1831 136.874 21.9376 136.405 20.5812C135.888 19.0889 135.631 17.5185 135.647 15.9392C135.628 14.3432 135.914 12.7584 136.491 11.2702C137.024 9.90336 137.832 8.66113 138.867 7.62116C139.913 6.58346 141.161 5.77139 142.533 5.23516C144.036 4.65317 145.636 4.3643 147.247 4.38416C148.753 4.35126 150.25 4.6255 151.647 5.19016C152.85 5.68873 153.946 6.41236 154.877 7.32216L153.47 9.27516C153.384 9.40236 153.275 9.5131 153.15 9.60216C152.989 9.7041 152.8 9.75305 152.609 9.74216C152.34 9.73129 152.082 9.63258 151.875 9.46116C151.569 9.23964 151.25 9.03629 150.92 8.85216C150.455 8.59904 149.965 8.3943 149.458 8.24116C147.747 7.78701 145.937 7.88394 144.284 8.51816C143.411 8.87329 142.627 9.41415 141.984 10.1032C141.321 10.831 140.81 11.685 140.484 12.6142C140.111 13.6814 139.929 14.8058 139.945 15.9362C139.926 17.0896 140.109 18.2374 140.484 19.3282C140.803 20.2492 141.3 21.0986 141.946 21.8282C142.55 22.4994 143.292 23.032 144.121 23.3892C144.97 23.7526 145.886 23.9362 146.81 23.9282C147.33 23.9313 147.85 23.8999 148.366 23.8342C148.801 23.7755 149.23 23.675 149.646 23.5342C150.034 23.3998 150.407 23.2241 150.757 23.0102C151.128 22.7797 151.477 22.5156 151.799 22.2212C151.897 22.1305 152.007 22.0534 152.126 21.9922C152.243 21.9359 152.371 21.9072 152.501 21.9082Z" fill="white"/>
<path d="M164.554 10.9462C165.668 10.931 166.775 11.1275 167.816 11.5252C168.755 11.8884 169.606 12.4486 170.31 13.1682C171.02 13.9122 171.563 14.7984 171.905 15.7682C172.293 16.867 172.484 18.0259 172.468 19.1912C172.483 20.3602 172.291 21.5227 171.902 22.6252C171.557 23.5966 171.014 24.4855 170.307 25.2352C169.607 25.962 168.757 26.5278 167.816 26.8932C165.709 27.6629 163.397 27.6629 161.29 26.8932C160.343 26.5293 159.486 25.964 158.779 25.2362C158.066 24.4872 157.517 23.598 157.167 22.6252C156.772 21.5212 156.579 20.3554 156.595 19.1832C156.58 18.0172 156.774 16.8579 157.167 15.7602C157.514 14.7896 158.062 13.9035 158.776 13.1602C159.487 12.4426 160.344 11.8852 161.288 11.5252C162.331 11.1288 163.439 10.933 164.554 10.9482M164.554 24.5022C165.121 24.5442 165.69 24.4428 166.207 24.2074C166.725 23.972 167.175 23.6102 167.516 23.1552C168.234 21.9725 168.569 20.5975 168.478 19.2172C168.568 17.8313 168.233 16.4509 167.516 15.2612C167.177 14.8032 166.728 14.4383 166.21 14.2007C165.693 13.9631 165.123 13.8604 164.555 13.9022C163.98 13.8596 163.404 13.9624 162.88 14.2012C162.356 14.4399 161.9 14.8068 161.555 15.2682C160.836 16.4547 160.497 17.8334 160.586 19.2182C160.496 20.5967 160.835 21.9694 161.555 23.1482C161.903 23.6059 162.359 23.9695 162.883 24.2056C163.407 24.4418 163.982 24.543 164.555 24.5002" fill="white"/>
<path d="M179.595 4.00216H175.734V27.2352H179.595V4.00216Z" fill="white"/>
<path d="M188.069 4.00216H184.208V27.2352H188.069V4.00216Z" fill="white"/>
<path d="M199.059 10.9462C200.012 10.9356 200.958 11.0993 201.852 11.4292C202.678 11.7369 203.429 12.2192 204.052 12.8432C204.686 13.494 205.175 14.2718 205.486 15.1252C205.845 16.1143 206.021 17.1609 206.003 18.2132C206.005 18.4558 205.992 18.6983 205.962 18.9392C205.947 19.0978 205.899 19.2516 205.822 19.3912C205.758 19.4971 205.662 19.5798 205.548 19.6272C205.408 19.6777 205.259 19.7014 205.11 19.6972H195.198C195.19 21.0269 195.662 22.3149 196.528 23.3242C196.933 23.7156 197.413 24.0203 197.939 24.2196C198.466 24.4189 199.028 24.5086 199.59 24.4832C200.138 24.4936 200.684 24.4197 201.209 24.2642C201.618 24.1362 202.016 23.9736 202.397 23.7782C202.736 23.6002 203.034 23.4392 203.289 23.2922C203.514 23.1567 203.77 23.0822 204.032 23.0762C204.173 23.0716 204.313 23.104 204.438 23.1702C204.557 23.2342 204.66 23.3249 204.738 23.4352L205.864 24.8422C205.45 25.332 204.964 25.7568 204.423 26.1022C203.901 26.4356 203.343 26.7084 202.759 26.9152C202.186 27.1164 201.594 27.2607 200.993 27.3462C200.414 27.4271 199.831 27.4689 199.247 27.4712C198.185 27.4803 197.13 27.2918 196.137 26.9152C195.196 26.5542 194.343 25.9949 193.637 25.2752C192.898 24.5039 192.329 23.587 191.965 22.5832C191.537 21.3936 191.33 20.136 191.354 18.8722C191.346 17.8194 191.526 16.7736 191.886 15.7842C192.22 14.8513 192.738 13.9948 193.409 13.2652C194.09 12.5369 194.915 11.958 195.831 11.5652C196.853 11.1374 197.952 10.9253 199.059 10.9422M199.138 13.7082C198.656 13.6805 198.173 13.7507 197.719 13.9145C197.265 14.0783 196.848 14.3322 196.495 14.6612C195.808 15.4081 195.381 16.3574 195.278 17.3672H202.532C202.536 16.8885 202.468 16.412 202.332 15.9532C202.206 15.5254 201.993 15.1281 201.707 14.7862C201.417 14.4464 201.053 14.1767 200.644 13.9972C200.17 13.7956 199.659 13.6971 199.144 13.7082" fill="white"/>
<path d="M214.695 10.9132C215.347 10.9089 215.998 10.98 216.634 11.1252C217.212 11.2552 217.769 11.4631 218.291 11.7432H222.904V13.1812C222.915 13.3863 222.847 13.5878 222.714 13.7442C222.536 13.9042 222.312 14.0028 222.074 14.0252L220.636 14.2902C220.741 14.5697 220.823 14.8577 220.879 15.1512C220.937 15.4655 220.965 15.7846 220.963 16.1042C220.975 16.8482 220.812 17.5846 220.487 18.2542C220.175 18.8884 219.726 19.4459 219.174 19.8872C218.582 20.3534 217.91 20.7066 217.19 20.9292C216.383 21.1799 215.541 21.3034 214.696 21.2952C214.103 21.297 213.512 21.2397 212.93 21.1242C212.726 21.2137 212.549 21.3557 212.417 21.5357C212.285 21.7157 212.204 21.9274 212.18 22.1492C212.174 22.2994 212.214 22.4479 212.293 22.5756C212.372 22.7034 212.488 22.8045 212.625 22.8662C212.995 23.0368 213.391 23.1449 213.796 23.1862C214.343 23.2557 214.894 23.2891 215.446 23.2862C216.059 23.2862 216.692 23.3102 217.339 23.3652C217.975 23.4143 218.606 23.5058 219.23 23.6392C219.809 23.756 220.366 23.9646 220.88 24.2572C221.361 24.5369 221.763 24.933 222.051 25.4092C222.371 25.9811 222.525 26.6305 222.498 27.2852C222.495 28.0079 222.315 28.719 221.974 29.3562C221.599 30.0516 221.082 30.6605 220.456 31.1432C219.725 31.7028 218.902 32.1302 218.024 32.4062C216.963 32.7401 215.855 32.9018 214.743 32.8852C213.674 32.9024 212.607 32.7835 211.568 32.5312C210.779 32.3433 210.027 32.027 209.341 31.5952C208.8 31.2549 208.347 30.7908 208.02 30.2412C207.734 29.7581 207.582 29.2075 207.58 28.6462C207.56 27.9509 207.807 27.2744 208.27 26.7552C208.797 26.1994 209.451 25.7809 210.177 25.5362C209.792 25.3268 209.464 25.0259 209.222 24.6602C208.965 24.231 208.841 23.7357 208.864 23.2362C208.866 22.9836 208.908 22.733 208.987 22.4932C209.078 22.2233 209.208 21.968 209.372 21.7352C209.556 21.4706 209.775 21.2313 210.021 21.0232C210.302 20.7859 210.611 20.5843 210.942 20.4232C210.163 20.0163 209.503 19.4135 209.027 18.6742C208.551 17.9043 208.308 17.0131 208.327 16.1082C208.316 15.3645 208.48 14.6286 208.806 13.9602C209.121 13.3207 209.575 12.7594 210.134 12.3172C210.736 11.8466 211.42 11.4931 212.152 11.2752C212.976 11.03 213.832 10.9093 214.692 10.9172M218.928 27.9172C218.941 27.6301 218.841 27.3494 218.649 27.1352C218.436 26.9183 218.172 26.7573 217.882 26.6662C217.513 26.5438 217.133 26.46 216.747 26.4162C216.291 26.3632 215.833 26.3368 215.374 26.3372H213.874C213.371 26.3395 212.869 26.2821 212.38 26.1662C211.976 26.3783 211.617 26.6674 211.324 27.0172C211.061 27.336 210.92 27.7372 210.924 28.1502C210.923 28.427 210.995 28.6993 211.133 28.9392C211.297 29.2071 211.529 29.4263 211.806 29.5742C212.182 29.7749 212.587 29.9146 213.006 29.9882C213.6 30.0964 214.203 30.1463 214.806 30.1372C215.431 30.1466 216.055 30.0903 216.668 29.9692C217.12 29.8844 217.555 29.7277 217.957 29.5052C218.262 29.3415 218.518 29.1 218.7 28.8052C218.855 28.5352 218.936 28.2286 218.933 27.9172M214.697 18.8322C215.122 18.8421 215.546 18.776 215.948 18.6372C216.278 18.5225 216.579 18.338 216.831 18.0962C217.069 17.8654 217.251 17.5832 217.363 17.2712C217.486 16.9294 217.547 16.5684 217.543 16.2052C217.56 15.8592 217.506 15.5134 217.383 15.1894C217.261 14.8654 217.073 14.5701 216.831 14.3222C216.211 13.8705 215.464 13.6271 214.697 13.6271C213.931 13.6271 213.184 13.8705 212.564 14.3222C212.322 14.5701 212.134 14.8654 212.012 15.1894C211.889 15.5134 211.835 15.8592 211.852 16.2052C211.849 16.5628 211.91 16.9181 212.032 17.2542C212.144 17.5689 212.326 17.8543 212.564 18.0892C212.816 18.3364 213.12 18.5237 213.454 18.6372C213.854 18.7747 214.274 18.8407 214.697 18.8322Z" fill="white"/>
<path d="M231.954 10.9462C232.905 10.935 233.85 11.0973 234.742 11.4252C235.568 11.7328 236.319 12.2151 236.942 12.8392C237.578 13.4907 238.069 14.2699 238.381 15.1252C238.74 16.1143 238.916 17.1609 238.898 18.2132C238.9 18.4558 238.887 18.6983 238.857 18.9392C238.842 19.0978 238.794 19.2516 238.717 19.3912C238.653 19.4965 238.556 19.5785 238.442 19.6252C238.302 19.6757 238.153 19.6994 238.004 19.6952H228.093C228.085 21.0249 228.557 22.3129 229.423 23.3222C229.828 23.7136 230.308 24.0183 230.834 24.2176C231.361 24.4169 231.923 24.5066 232.485 24.4812C233.033 24.4916 233.579 24.4177 234.104 24.2622C234.513 24.1342 234.911 23.9716 235.292 23.7762C235.631 23.5982 235.929 23.4372 236.184 23.2902C236.409 23.1547 236.665 23.0802 236.927 23.0742C237.068 23.0696 237.208 23.102 237.333 23.1682C237.452 23.2322 237.555 23.3229 237.633 23.4332L238.759 24.8402C238.345 25.3291 237.861 25.7531 237.321 26.0982C236.799 26.4316 236.241 26.7044 235.657 26.9112C235.084 27.1124 234.492 27.2567 233.891 27.3422C233.312 27.4231 232.729 27.4649 232.145 27.4672C231.083 27.4763 230.028 27.2878 229.035 26.9112C228.094 26.5502 227.241 25.9909 226.535 25.2712C225.797 24.4999 225.227 23.583 224.863 22.5792C224.436 21.3896 224.228 20.132 224.252 18.8682C224.244 17.8154 224.424 16.7696 224.784 15.7802C225.118 14.8489 225.635 13.9939 226.304 13.2652C226.985 12.5369 227.81 11.958 228.726 11.5652C229.748 11.1374 230.847 10.9253 231.954 10.9422M232.033 13.7082C231.551 13.6805 231.068 13.7507 230.614 13.9145C230.16 14.0783 229.743 14.3322 229.39 14.6612C228.703 15.4081 228.276 16.3574 228.173 17.3672H235.427C235.431 16.8885 235.363 16.412 235.227 15.9532C235.101 15.5254 234.888 15.1281 234.602 14.7862C234.312 14.4464 233.948 14.1767 233.539 13.9972C233.065 13.7956 232.554 13.6971 232.039 13.7082" fill="white"/>
<path d="M254.922 10.9462C256.035 10.9308 257.141 11.1266 258.181 11.5232C259.12 11.8864 259.971 12.4466 260.675 13.1662C261.385 13.9102 261.928 14.7964 262.27 15.7662C262.658 16.865 262.849 18.0239 262.833 19.1892C262.849 20.3587 262.659 21.5218 262.271 22.6252C261.927 23.5966 261.383 24.4855 260.676 25.2352C259.975 25.962 259.124 26.5275 258.182 26.8922C256.075 27.6619 253.763 27.6619 251.656 26.8922C250.709 26.5283 249.852 25.963 249.145 25.2352C248.433 24.4863 247.885 23.5975 247.535 22.6252C247.14 21.5212 246.947 20.3554 246.963 19.1832C246.948 18.0172 247.142 16.8579 247.535 15.7602C247.882 14.7896 248.43 13.9035 249.144 13.1602C249.855 12.4426 250.712 11.8852 251.656 11.5252C252.699 11.1288 253.807 10.933 254.922 10.9482M254.922 24.5022C255.489 24.5442 256.057 24.4431 256.574 24.208C257.092 23.973 257.542 23.6116 257.883 23.1572C258.601 21.9745 258.936 20.5995 258.845 19.2192C258.935 17.8329 258.6 16.4522 257.883 15.2622C257.544 14.8042 257.095 14.4393 256.577 14.2017C256.06 13.9641 255.49 13.8614 254.922 13.9032C254.347 13.8606 253.771 13.9634 253.247 14.2022C252.723 14.4409 252.267 14.8078 251.922 15.2692C251.203 16.4557 250.864 17.8344 250.953 19.2192C250.863 20.5978 251.201 21.9705 251.922 23.1492C252.27 23.6069 252.726 23.9705 253.25 24.2066C253.774 24.4428 254.349 24.544 254.922 24.5012" fill="white"/>
<path d="M266.537 27.2352V14.1042L265.144 13.8852C264.878 13.849 264.627 13.7408 264.418 13.5722C264.326 13.4904 264.253 13.3889 264.206 13.2751C264.158 13.1613 264.137 13.0382 264.144 12.9152V11.3362H266.537V10.1472C266.524 9.30551 266.664 8.46851 266.951 7.67716C267.208 6.97871 267.613 6.3444 268.139 5.81816C268.675 5.29536 269.317 4.89424 270.022 4.64216C270.825 4.36157 271.671 4.22383 272.522 4.23516C273.222 4.22941 273.919 4.33057 274.588 4.53516L274.509 6.47416C274.513 6.60206 274.474 6.72755 274.397 6.83016C274.321 6.93277 274.212 7.00644 274.088 7.03916C273.792 7.11466 273.487 7.1503 273.181 7.14516C272.766 7.13971 272.353 7.19085 271.952 7.29716C271.608 7.38707 271.293 7.56449 271.038 7.81216C270.771 8.0835 270.576 8.41628 270.468 8.78116C270.325 9.2649 270.258 9.76783 270.268 10.2722V11.3362H274.452V14.0882H270.401V27.2352H266.537Z" fill="white"/>
<path d="M285.736 4.65416C285.853 4.66732 285.966 4.69905 286.073 4.74816C286.179 4.79957 286.277 4.86703 286.362 4.94816C286.475 5.05864 286.579 5.17693 286.675 5.30216L298.54 20.4192C298.499 20.0532 298.47 19.6972 298.456 19.3462C298.442 18.9952 298.432 18.6732 298.432 18.3692V4.63516H302.132V27.2352H299.96C299.675 27.2444 299.392 27.1912 299.13 27.0792C298.876 26.9436 298.657 26.7509 298.49 26.5162L286.674 11.4612C286.705 11.7952 286.729 12.1252 286.744 12.4542C286.759 12.7832 286.768 13.0822 286.768 13.3542V27.2352H283.068V4.63516H285.268C285.425 4.63306 285.581 4.64108 285.737 4.65916" fill="white"/>
<path d="M319.055 27.2352H317.323C317.028 27.2497 316.733 27.1935 316.464 27.0712C316.345 26.9969 316.243 26.8998 316.162 26.7854C316.082 26.671 316.025 26.5418 315.995 26.4052L315.651 25.2672C315.269 25.6093 314.869 25.9298 314.451 26.2272C314.07 26.4987 313.664 26.7331 313.239 26.9272C312.813 27.1183 312.367 27.2602 311.909 27.3502C311.395 27.448 310.872 27.4949 310.348 27.4902C309.712 27.4965 309.079 27.4041 308.472 27.2162C307.926 27.0499 307.421 26.7686 306.993 26.3912C306.573 26.0158 306.245 25.5492 306.033 25.0272C305.791 24.4236 305.673 23.7773 305.687 23.1272C305.693 22.4983 305.857 21.8811 306.166 21.3332C306.55 20.6741 307.096 20.1235 307.751 19.7332C308.669 19.1873 309.666 18.7881 310.707 18.5502C312.209 18.2071 313.748 18.049 315.289 18.0792V17.1342C315.356 16.2785 315.115 15.427 314.608 14.7342C314.357 14.4657 314.049 14.2564 313.707 14.1217C313.365 13.9869 312.998 13.9301 312.631 13.9552C312.102 13.9409 311.574 14.0138 311.068 14.1712C310.691 14.2996 310.327 14.464 309.981 14.6622C309.673 14.8472 309.389 15.0112 309.13 15.1622C308.866 15.3068 308.57 15.3812 308.269 15.3782C308.029 15.3856 307.793 15.3155 307.596 15.1782C307.412 15.0447 307.258 14.8744 307.144 14.6782L306.444 13.4442C308.254 11.7636 310.645 10.8505 313.114 10.8972C313.973 10.8812 314.826 11.0373 315.623 11.3562C316.331 11.6447 316.969 12.0827 317.492 12.6402C318.014 13.2043 318.412 13.8721 318.659 14.6002C318.932 15.4051 319.067 16.2503 319.059 17.1002L319.055 27.2352ZM311.555 24.8272C311.922 24.8301 312.289 24.7939 312.649 24.7192C312.976 24.6515 313.294 24.5433 313.594 24.3972C313.898 24.2506 314.187 24.0733 314.455 23.8682C314.751 23.6387 315.031 23.3887 315.292 23.1202V20.4352C314.346 20.4204 313.401 20.4914 312.468 20.6472C311.84 20.7499 311.228 20.9327 310.647 21.1912C310.258 21.3564 309.921 21.623 309.67 21.9632C309.48 22.2472 309.38 22.5815 309.381 22.9232C309.355 23.1977 309.396 23.4745 309.5 23.7298C309.605 23.985 309.77 24.211 309.981 24.3882C310.444 24.6996 310.995 24.8538 311.552 24.8282" fill="white"/>
<path d="M328.123 27.4882C327.536 27.5254 326.947 27.4396 326.395 27.2362C325.843 27.0328 325.34 26.7164 324.917 26.3072C324.127 25.4105 323.724 24.238 323.794 23.0452V14.0902H322.166C321.968 14.0938 321.775 14.0223 321.627 13.8902C321.547 13.8106 321.486 13.7148 321.447 13.6094C321.408 13.5039 321.392 13.3913 321.401 13.2792V11.7422L323.982 11.3192L324.795 6.94416C324.826 6.75141 324.93 6.57772 325.084 6.45816C325.25 6.34014 325.45 6.28004 325.654 6.28716H327.654V11.3362H331.875V14.0902H327.654V22.7802C327.629 23.2036 327.762 23.6213 328.029 23.9512C328.154 24.0909 328.309 24.2013 328.482 24.2744C328.655 24.3476 328.841 24.3816 329.029 24.3742C329.232 24.379 329.435 24.3507 329.629 24.2902C329.773 24.2386 329.915 24.1785 330.052 24.1102C330.172 24.0452 330.278 23.9872 330.372 23.9302C330.456 23.8754 330.553 23.8452 330.653 23.8432C330.754 23.8388 330.853 23.8696 330.934 23.9302C331.023 24.0058 331.102 24.0921 331.17 24.1872L332.327 26.0632C331.755 26.539 331.096 26.9008 330.388 27.1292C329.656 27.3678 328.89 27.4886 328.12 27.4872" fill="white"/>
<path d="M338.488 11.1942V21.3882C338.436 22.2035 338.677 23.0106 339.169 23.6632C339.426 23.9426 339.743 24.1602 340.097 24.2998C340.45 24.4393 340.83 24.4972 341.209 24.4692C341.861 24.4726 342.504 24.3193 343.085 24.0222C343.699 23.7032 344.258 23.2891 344.742 22.7952V11.1942H348.605V27.2352H346.242C346.022 27.2508 345.803 27.1895 345.624 27.0618C345.444 26.9341 345.314 26.748 345.256 26.5352L344.991 25.2532C344.665 25.5778 344.321 25.883 343.959 26.1672C343.607 26.4398 343.227 26.6745 342.826 26.8672C342.41 27.0637 341.974 27.2152 341.526 27.3192C341.037 27.4307 340.537 27.4857 340.035 27.4832C339.238 27.4996 338.446 27.348 337.711 27.0382C337.054 26.7554 336.473 26.3241 336.011 25.7782C335.537 25.2123 335.184 24.556 334.972 23.8492C334.729 23.051 334.611 22.2203 334.621 21.3862V11.1942H338.488Z" fill="white"/>
<path d="M352.732 27.2352V11.1972H354.998C355.292 11.1666 355.587 11.2444 355.828 11.4162C356.013 11.6245 356.123 11.8883 356.141 12.1662L356.377 14.1052C356.882 13.1941 357.568 12.3961 358.393 11.7602C359.141 11.1947 360.055 10.8927 360.993 10.9012C361.691 10.873 362.38 11.0647 362.963 11.4492L362.463 14.3402C362.45 14.4943 362.379 14.6376 362.263 14.7402C362.139 14.8238 361.991 14.8652 361.842 14.8582C361.625 14.8474 361.41 14.8101 361.202 14.7472C360.847 14.6651 360.484 14.6288 360.12 14.6392C359.378 14.6203 358.652 14.8533 358.059 15.3002C357.425 15.8239 356.926 16.4919 356.604 17.2482V27.2372L352.732 27.2352Z" fill="white"/>
<path d="M377.623 27.2352H375.886C375.591 27.2497 375.296 27.1935 375.027 27.0712C374.909 26.9968 374.807 26.8996 374.726 26.7853C374.646 26.6709 374.59 26.5417 374.56 26.4052L374.214 25.2672C373.832 25.6093 373.432 25.9298 373.014 26.2272C372.634 26.4997 372.228 26.7342 371.802 26.9272C371.376 27.1183 370.93 27.2602 370.472 27.3502C369.958 27.448 369.435 27.4949 368.911 27.4902C368.275 27.4965 367.642 27.4041 367.035 27.2162C366.489 27.0499 365.984 26.7686 365.556 26.3912C365.137 26.0152 364.808 25.5487 364.596 25.0272C364.354 24.4236 364.236 23.7773 364.25 23.1272C364.257 22.4985 364.422 21.8816 364.729 21.3332C365.114 20.6741 365.66 20.1235 366.316 19.7332C367.233 19.1872 368.23 18.7881 369.27 18.5502C370.772 18.2073 372.311 18.0491 373.852 18.0792V17.1342C373.921 16.2783 373.679 15.4264 373.171 14.7342C372.92 14.4655 372.612 14.2562 372.27 14.1214C371.928 13.9866 371.561 13.9298 371.194 13.9552C370.665 13.9409 370.137 14.0138 369.631 14.1712C369.254 14.3001 368.89 14.4645 368.544 14.6622C368.239 14.8472 367.955 15.0112 367.692 15.1622C367.429 15.3071 367.133 15.3816 366.833 15.3782C366.592 15.3861 366.355 15.3159 366.157 15.1782C365.973 15.0447 365.819 14.8744 365.705 14.6782L365.005 13.4442C366.816 11.7619 369.21 10.8487 371.682 10.8972C372.541 10.8812 373.394 11.0373 374.191 11.3562C374.899 11.6453 375.537 12.0832 376.062 12.6402C376.583 13.205 376.979 13.8727 377.226 14.6002C377.499 15.4051 377.634 16.2503 377.626 17.1002L377.623 27.2352ZM370.123 24.8272C370.49 24.8301 370.857 24.7939 371.217 24.7192C371.545 24.6515 371.864 24.5434 372.165 24.3972C372.468 24.25 372.756 24.0728 373.024 23.8682C373.32 23.6387 373.6 23.3887 373.861 23.1202V20.4352C372.916 20.4205 371.972 20.4914 371.04 20.6472C370.412 20.7496 369.799 20.9325 369.217 21.1912C368.828 21.3564 368.491 21.623 368.24 21.9632C368.05 22.2473 367.95 22.5815 367.951 22.9232C367.925 23.1977 367.966 23.4745 368.07 23.7298C368.175 23.985 368.34 24.211 368.551 24.3882C369.014 24.6996 369.565 24.8538 370.122 24.8282" fill="white"/>
<path d="M385.534 4.00216H381.673V27.2352H385.534V4.00216Z" fill="white"/>
<path d="M408.266 8.74116C408.179 8.9365 408.041 9.10452 407.866 9.22716C407.703 9.32263 407.516 9.37108 407.327 9.36716C407.076 9.35251 406.833 9.26839 406.627 9.12416C406.367 8.96516 406.059 8.78516 405.706 8.58816C405.309 8.37033 404.892 8.18925 404.462 8.04716C403.919 7.87529 403.352 7.79321 402.783 7.80416C402.267 7.79533 401.752 7.86685 401.258 8.01616C400.859 8.13933 400.488 8.33756 400.164 8.60016C399.873 8.84197 399.645 9.15082 399.5 9.50016C399.351 9.86501 399.276 10.256 399.281 10.6502C399.263 11.1324 399.421 11.6048 399.724 11.9802C400.053 12.3586 400.455 12.667 400.905 12.8872C401.444 13.1566 402.003 13.381 402.579 13.5582C403.204 13.7582 403.842 13.9672 404.496 14.1932C405.149 14.4164 405.788 14.6775 406.411 14.9752C407.022 15.263 407.586 15.6427 408.083 16.1012C408.585 16.5705 408.987 17.1365 409.264 17.7652C409.58 18.5217 409.732 19.3366 409.709 20.1562C409.716 21.1363 409.539 22.109 409.185 23.0232C408.846 23.9004 408.324 24.6952 407.653 25.3542C406.948 26.038 406.11 26.5709 405.192 26.9202C404.127 27.3165 402.997 27.5098 401.861 27.4902C401.147 27.491 400.435 27.42 399.735 27.2782C399.048 27.1406 398.374 26.9397 397.724 26.6782C397.095 26.4246 396.492 26.1097 395.924 25.7382C395.384 25.3873 394.883 24.9793 394.43 24.5212L395.652 22.5032C395.766 22.3556 395.906 22.2307 396.066 22.1352C396.228 22.0363 396.415 21.9853 396.605 21.9882C396.913 22.0051 397.207 22.1169 397.449 22.3082C397.749 22.5222 398.108 22.7582 398.519 23.0202C398.979 23.3052 399.466 23.543 399.974 23.7302C400.618 23.9585 401.299 24.0669 401.982 24.0502C402.982 24.1144 403.971 23.8126 404.765 23.2012C405.101 22.8922 405.364 22.5119 405.534 22.0881C405.705 21.6644 405.778 21.2079 405.749 20.7522C405.772 20.2314 405.616 19.7184 405.306 19.2992C404.983 18.9031 404.58 18.5799 404.123 18.3512C403.588 18.0808 403.028 17.8641 402.451 17.7042C401.826 17.5262 401.19 17.3328 400.544 17.1242C399.893 16.9141 399.256 16.6636 398.637 16.3742C398.02 16.0893 397.455 15.7029 396.965 15.2312C396.455 14.7334 396.052 14.1356 395.784 13.4752C395.465 12.6464 395.313 11.7628 395.337 10.8752C395.337 10.0475 395.505 9.22843 395.83 8.46716C396.162 7.68031 396.653 6.97024 397.271 6.38116C397.944 5.75011 398.733 5.25594 399.595 4.92616C400.598 4.54684 401.664 4.36155 402.736 4.38016C403.993 4.36651 405.243 4.57749 406.426 5.00316C407.495 5.38508 408.474 5.98166 409.303 6.75616L408.266 8.74116Z" fill="white"/>
<path d="M423.977 14.5902C423.88 14.7186 423.766 14.8341 423.64 14.9342C423.499 15.0263 423.332 15.0696 423.164 15.0572C422.958 15.0554 422.758 14.9935 422.587 14.8792C422.399 14.7592 422.176 14.6242 421.916 14.4722C421.62 14.3063 421.308 14.1703 420.985 14.0662C420.552 13.9357 420.1 13.8749 419.648 13.8862C419.034 13.8732 418.425 13.9983 417.866 14.2522C417.36 14.4943 416.922 14.8578 416.591 15.3102C416.232 15.81 415.975 16.3753 415.833 16.9742C415.658 17.6976 415.574 18.44 415.583 19.1842C415.572 19.954 415.664 20.7218 415.857 21.4672C416.009 22.0741 416.277 22.6459 416.646 23.1512C416.974 23.5899 417.403 23.943 417.897 24.1802C418.415 24.4222 418.982 24.5433 419.554 24.5342C420.061 24.5521 420.567 24.4744 421.045 24.3052C421.385 24.1766 421.709 24.0088 422.01 23.8052C422.27 23.6252 422.496 23.4592 422.688 23.3052C422.872 23.1585 423.1 23.0788 423.335 23.0792C423.473 23.0721 423.611 23.1018 423.734 23.1652C423.857 23.2287 423.961 23.3235 424.035 23.4402L425.146 24.8472C424.741 25.3275 424.272 25.7507 423.753 26.1052C423.268 26.4351 422.747 26.7079 422.199 26.9182C421.66 27.121 421.101 27.2655 420.532 27.3492C419.967 27.4305 419.398 27.4716 418.827 27.4722C417.866 27.4779 416.914 27.2898 416.027 26.9192C415.155 26.5517 414.374 25.9993 413.737 25.3002C413.057 24.5424 412.532 23.6592 412.19 22.7002C411.791 21.573 411.597 20.3836 411.618 19.1882C411.609 18.0765 411.78 16.9707 412.126 15.9142C412.442 14.9513 412.95 14.0627 413.62 13.3022C414.297 12.555 415.129 11.9655 416.059 11.5752C417.121 11.141 418.26 10.9283 419.407 10.9502C420.485 10.9272 421.557 11.1246 422.556 11.5302C423.466 11.9197 424.292 12.4825 424.988 13.1872L423.977 14.5902Z" fill="white"/>
<path d="M432.313 6.52016C432.317 6.84382 432.249 7.16429 432.113 7.45816C431.848 8.04022 431.374 8.5014 430.785 8.75016C430.478 8.87989 430.149 8.94622 429.816 8.94516C429.491 8.94551 429.169 8.87914 428.871 8.75016C428.583 8.62456 428.32 8.44693 428.096 8.22616C427.876 8.00539 427.698 7.74523 427.574 7.45916C427.44 7.1646 427.372 6.8446 427.374 6.52116C427.372 6.18776 427.441 5.8577 427.574 5.55216C427.82 4.96487 428.287 4.49789 428.874 4.25216C429.171 4.11936 429.493 4.05119 429.819 4.05216C430.152 4.05036 430.483 4.11849 430.788 4.25216C431.082 4.37453 431.349 4.55168 431.577 4.77416C431.804 4.99851 431.987 5.26384 432.116 5.55616C432.252 5.86103 432.32 6.19154 432.316 6.52516M431.736 27.2402H427.875V11.1962H431.736V27.2402Z" fill="white"/>
<path d="M442.725 10.9462C443.678 10.9356 444.624 11.0993 445.518 11.4292C446.344 11.7375 447.094 12.2197 447.718 12.8432C448.352 13.494 448.841 14.2718 449.152 15.1252C449.511 16.1143 449.687 17.1609 449.669 18.2132C449.671 18.4558 449.658 18.6983 449.628 18.9392C449.613 19.0982 449.565 19.2523 449.486 19.3912C449.424 19.4975 449.328 19.5804 449.214 19.6272C449.073 19.6778 448.924 19.7015 448.774 19.6972H438.862C438.855 21.0267 439.327 22.3143 440.192 23.3242C440.597 23.7156 441.078 24.0202 441.605 24.2195C442.131 24.4188 442.693 24.5085 443.256 24.4832C443.804 24.4934 444.35 24.4195 444.875 24.2642C445.284 24.1362 445.681 23.9736 446.063 23.7782C446.402 23.6002 446.698 23.4392 446.955 23.2922C447.179 23.1568 447.434 23.0823 447.696 23.0762C447.837 23.0714 447.977 23.1038 448.102 23.1702C448.221 23.2338 448.324 23.3245 448.402 23.4352L449.528 24.8422C449.114 25.3318 448.628 25.7559 448.087 26.1002C447.566 26.4341 447.008 26.7069 446.425 26.9132C445.852 27.1144 445.26 27.2587 444.659 27.3442C444.08 27.4251 443.497 27.4669 442.913 27.4692C441.851 27.4787 440.796 27.2902 439.803 26.9132C438.862 26.5522 438.009 25.9929 437.303 25.2732C436.565 24.5019 435.995 23.585 435.631 22.5812C435.204 21.3916 434.996 20.134 435.02 18.8702C435.012 17.8176 435.191 16.7721 435.549 15.7822C435.886 14.8503 436.404 13.9945 437.074 13.2642C437.756 12.5362 438.582 11.9574 439.499 11.5642C440.521 11.1362 441.62 10.924 442.727 10.9412M442.806 13.7072C442.324 13.6795 441.841 13.7497 441.387 13.9135C440.933 14.0773 440.516 14.3312 440.163 14.6602C439.476 15.4071 439.049 16.3564 438.946 17.3662H446.198C446.202 16.8875 446.134 16.411 445.998 15.9522C445.872 15.5238 445.658 15.1264 445.37 14.7852C445.081 14.4449 444.718 14.1751 444.309 13.9962C443.835 13.7946 443.324 13.6961 442.809 13.7072" fill="white"/>
<path d="M452.808 27.2352V11.1942H455.168C455.388 11.1786 455.607 11.2399 455.788 11.3675C455.968 11.4951 456.098 11.6812 456.157 11.8942L456.422 13.1592C456.74 12.8308 457.082 12.5276 457.447 12.2522C457.804 11.9836 458.186 11.7493 458.587 11.5522C458.998 11.3527 459.43 11.201 459.876 11.1002C460.369 10.9937 460.872 10.9421 461.376 10.9462C462.174 10.9311 462.967 11.082 463.704 11.3892C464.36 11.6693 464.942 12.0983 465.404 12.6422C465.874 13.2069 466.225 13.8606 466.436 14.5642C466.68 15.3622 466.799 16.1929 466.79 17.0272V27.2352H462.927V17.0252C462.978 16.21 462.736 15.4034 462.246 14.7502C461.988 14.4719 461.671 14.2554 461.317 14.1169C460.964 13.9784 460.584 13.9214 460.206 13.9502C459.553 13.9458 458.909 14.101 458.33 14.4022C457.716 14.7255 457.156 15.1417 456.67 15.6362V27.2362L452.808 27.2352Z" fill="white"/>
<path d="M481.857 14.5902C481.76 14.7186 481.646 14.8341 481.52 14.9342C481.379 15.0263 481.212 15.0696 481.044 15.0572C480.838 15.0554 480.638 14.9935 480.467 14.8792C480.279 14.7592 480.056 14.6242 479.796 14.4722C479.5 14.3063 479.188 14.1703 478.865 14.0662C478.432 13.9357 477.98 13.8749 477.528 13.8862C476.914 13.8732 476.305 13.9983 475.746 14.2522C475.24 14.4943 474.802 14.8578 474.471 15.3102C474.112 15.81 473.855 16.3753 473.713 16.9742C473.538 17.6976 473.454 18.44 473.463 19.1842C473.452 19.954 473.544 20.7218 473.737 21.4672C473.889 22.0741 474.157 22.6459 474.526 23.1512C474.854 23.5899 475.283 23.943 475.777 24.1802C476.295 24.4222 476.862 24.5433 477.434 24.5342C477.941 24.5521 478.447 24.4744 478.925 24.3052C479.265 24.1766 479.589 24.0088 479.89 23.8052C480.15 23.6252 480.376 23.4592 480.568 23.3052C480.752 23.1585 480.98 23.0788 481.215 23.0792C481.353 23.0721 481.491 23.1018 481.614 23.1652C481.737 23.2287 481.841 23.3235 481.915 23.4402L483.026 24.8472C482.621 25.327 482.154 25.7498 481.636 26.1042C481.151 26.4341 480.63 26.7069 480.082 26.9172C479.543 27.12 478.984 27.2645 478.415 27.3482C477.85 27.4295 477.281 27.4706 476.71 27.4712C475.749 27.4769 474.797 27.2888 473.91 26.9182C473.038 26.5507 472.257 25.9983 471.62 25.2992C470.94 24.5414 470.415 23.6582 470.073 22.6992C469.674 21.572 469.48 20.3826 469.501 19.1872C469.492 18.0755 469.663 16.9697 470.009 15.9132C470.325 14.9503 470.833 14.0617 471.503 13.3012C472.18 12.554 473.012 11.9645 473.942 11.5742C475.004 11.14 476.143 10.9273 477.29 10.9492C478.368 10.9262 479.44 11.1236 480.439 11.5292C481.349 11.9187 482.175 12.4815 482.871 13.1862L481.857 14.5902Z" fill="white"/>
<path d="M492.131 10.9462C493.083 10.9359 494.028 11.0996 494.921 11.4292C495.747 11.7369 496.498 12.2192 497.121 12.8432C497.755 13.4944 498.245 14.272 498.558 15.1252C498.915 16.1148 499.09 17.1611 499.073 18.2132C499.076 18.4558 499.063 18.6983 499.034 18.9392C499.018 19.098 498.97 19.2518 498.892 19.3912C498.829 19.4976 498.733 19.5804 498.618 19.6272C498.478 19.6777 498.329 19.7014 498.18 19.6972H488.268C488.26 21.0269 488.732 22.3149 489.598 23.3242C490.003 23.7156 490.483 24.0203 491.009 24.2196C491.536 24.4189 492.098 24.5086 492.66 24.4832C493.208 24.4936 493.754 24.4197 494.279 24.2642C494.688 24.1366 495.086 23.974 495.467 23.7782C495.806 23.6002 496.104 23.4392 496.359 23.2922C496.584 23.1567 496.84 23.0822 497.102 23.0762C497.243 23.0716 497.383 23.104 497.508 23.1702C497.628 23.2336 497.73 23.3244 497.808 23.4352L498.934 24.8422C498.52 25.3311 498.036 25.7551 497.496 26.1002C496.974 26.4341 496.416 26.7069 495.832 26.9132C495.259 27.1146 494.667 27.259 494.066 27.3442C493.488 27.425 492.905 27.4668 492.322 27.4692C491.259 27.4786 490.203 27.2901 489.209 26.9132C488.268 26.5522 487.415 25.9929 486.709 25.2732C485.971 24.5012 485.402 23.5846 485.037 22.5812C484.61 21.3914 484.404 20.1339 484.428 18.8702C484.42 17.8176 484.599 16.7721 484.957 15.7822C485.293 14.8499 485.812 13.9939 486.482 13.2642C487.164 12.5356 487.99 11.9567 488.907 11.5642C489.929 11.1362 491.028 10.924 492.135 10.9412M492.212 13.7072C491.73 13.6795 491.247 13.7497 490.793 13.9135C490.339 14.0773 489.922 14.3312 489.569 14.6602C488.883 15.4097 488.456 16.3603 488.352 17.3712H495.606C495.611 16.8924 495.544 16.4157 495.406 15.9572C495.281 15.529 495.068 15.1315 494.781 14.7902C494.491 14.4504 494.127 14.1807 493.718 14.0012C493.244 13.7996 492.733 13.7011 492.218 13.7122" fill="white"/>
<path d="M511.733 14.3252C511.653 14.4661 511.541 14.5863 511.406 14.6762C511.272 14.7491 511.12 14.7837 510.968 14.7762C510.759 14.7708 510.554 14.7182 510.368 14.6222C510.154 14.5222 509.906 14.4012 509.625 14.2712C509.313 14.1298 508.992 14.0115 508.663 13.9172C508.247 13.8072 507.818 13.7554 507.388 13.7632C506.752 13.7271 506.121 13.8964 505.588 14.2462C505.382 14.386 505.214 14.5748 505.1 14.7956C504.985 15.0165 504.927 15.2624 504.931 15.5112C504.927 15.6707 504.954 15.8295 505.012 15.9784C505.069 16.1274 505.155 16.2635 505.265 16.3792C505.523 16.6367 505.825 16.846 506.157 16.9972C506.564 17.1884 506.984 17.3485 507.415 17.4762C507.884 17.6132 508.365 17.7692 508.856 17.9352C509.344 18.101 509.823 18.2912 510.292 18.5052C510.75 18.7114 511.175 18.9855 511.552 19.3182C511.923 19.6497 512.226 20.051 512.442 20.4992C512.68 21.0183 512.796 21.5853 512.779 22.1562C512.785 22.8894 512.642 23.6162 512.358 24.2922C512.078 24.9397 511.655 25.5159 511.122 25.9782C510.532 26.4782 509.848 26.8559 509.111 27.0892C507.698 27.5167 506.203 27.6024 504.75 27.3392C504.234 27.242 503.728 27.1029 503.235 26.9232C502.768 26.7558 502.317 26.5466 501.888 26.2982C501.5 26.0759 501.137 25.8138 500.803 25.5162L501.693 24.0462C501.797 23.8821 501.935 23.7431 502.099 23.6392C502.281 23.5392 502.486 23.4901 502.693 23.4972C502.935 23.4971 503.171 23.5665 503.374 23.6972C503.588 23.8342 503.836 23.9812 504.117 24.1352C504.436 24.3084 504.768 24.4555 505.11 24.5752C505.578 24.7212 506.066 24.7888 506.556 24.7752C506.956 24.7835 507.355 24.7275 507.737 24.6092C508.033 24.519 508.308 24.3738 508.55 24.1812C508.753 24.0154 508.914 23.8035 509.019 23.5632C509.117 23.3336 509.168 23.0867 509.168 22.8372C509.181 22.4969 509.06 22.1651 508.831 21.9132C508.574 21.6524 508.272 21.4406 507.939 21.2882C507.529 21.0971 507.105 20.9379 506.671 20.8122C506.197 20.6728 505.713 20.5198 505.218 20.3532C504.723 20.1837 504.237 19.9878 503.763 19.7662C503.299 19.5499 502.872 19.2617 502.498 18.9122C502.118 18.5557 501.815 18.1252 501.608 17.6472C501.368 17.0734 501.252 16.455 501.269 15.8332C501.267 15.1873 501.401 14.5483 501.661 13.9572C501.925 13.3604 502.318 12.8291 502.811 12.4012C503.368 11.9301 504.01 11.5694 504.702 11.3382C505.546 11.0578 506.432 10.9225 507.321 10.9382C508.353 10.9237 509.378 11.1091 510.34 11.4842C511.183 11.8085 511.953 12.2973 512.606 12.9222L511.733 14.3252Z" fill="white"/>
<path d="M149.311 58.5042H147.574C147.279 58.5187 146.984 58.4625 146.715 58.3402C146.596 58.2659 146.494 58.1688 146.413 58.0544C146.333 57.94 146.276 57.8108 146.246 57.6742L145.902 56.5362C145.52 56.8783 145.12 57.1988 144.702 57.4962C144.321 57.7677 143.915 58.0021 143.49 58.1962C143.064 58.3873 142.618 58.5292 142.16 58.6192C141.646 58.717 141.123 58.7639 140.599 58.7592C139.963 58.7655 139.33 58.6731 138.723 58.4852C138.177 58.3189 137.672 58.0376 137.244 57.6602C136.824 57.2848 136.496 56.8182 136.284 56.2962C136.042 55.6926 135.924 55.0463 135.938 54.3962C135.944 53.7673 136.108 53.1501 136.417 52.6022C136.801 51.9431 137.347 51.3925 138.002 51.0022C138.92 50.4563 139.917 50.0571 140.958 49.8192C142.46 49.4761 143.999 49.318 145.54 49.3482V48.4032C145.607 47.5475 145.366 46.696 144.859 46.0032C144.608 45.7347 144.3 45.5254 143.958 45.3907C143.616 45.2559 143.249 45.1991 142.882 45.2242C142.353 45.2099 141.825 45.2828 141.319 45.4402C140.942 45.5686 140.578 45.733 140.232 45.9312C139.924 46.1162 139.64 46.2802 139.381 46.4312C139.117 46.5758 138.821 46.6502 138.52 46.6472C138.28 46.6546 138.044 46.5845 137.847 46.4472C137.663 46.3137 137.509 46.1434 137.395 45.9472L136.695 44.7132C138.506 43.0313 140.899 42.1182 143.37 42.1662C144.229 42.1502 145.082 42.3063 145.879 42.6252C146.588 42.9141 147.226 43.3528 147.749 43.9112C148.271 44.4753 148.669 45.1431 148.916 45.8712C149.189 46.6761 149.324 47.5213 149.316 48.3712L149.311 58.5042ZM141.811 56.0962C142.178 56.0991 142.545 56.0629 142.905 55.9882C143.232 55.9204 143.549 55.8123 143.849 55.6662C144.153 55.5196 144.442 55.3423 144.71 55.1372C145.006 54.9077 145.286 54.6577 145.547 54.3892V51.7042C144.601 51.6894 143.656 51.7604 142.723 51.9162C142.095 52.0189 141.483 52.2018 140.902 52.4602C140.513 52.6254 140.176 52.892 139.925 53.2322C139.735 53.5162 139.635 53.8505 139.636 54.1922C139.61 54.4667 139.651 54.7435 139.755 54.9988C139.86 55.254 140.025 55.48 140.236 55.6572C140.699 55.9686 141.25 56.1228 141.807 56.0972" fill="white"/>
<path d="M153.112 58.5052V42.4642H155.472C155.692 42.4484 155.911 42.5096 156.091 42.6373C156.27 42.765 156.4 42.9512 156.458 43.1642L156.723 44.4292C157.042 44.102 157.384 43.7989 157.748 43.5222C158.107 43.2541 158.489 43.0198 158.891 42.8222C159.302 42.6227 159.734 42.471 160.18 42.3702C160.673 42.2637 161.176 42.212 161.68 42.2162C162.479 42.201 163.273 42.3519 164.011 42.6592C164.667 42.94 165.249 43.3689 165.711 43.9122C166.18 44.4775 166.531 45.131 166.743 45.8342C166.984 46.6326 167.103 47.4631 167.094 48.2972V58.5052H163.229V48.2952C163.28 47.48 163.038 46.6734 162.548 46.0202C162.29 45.742 161.973 45.5255 161.619 45.387C161.266 45.2485 160.886 45.1915 160.508 45.2202C159.854 45.2157 159.209 45.3709 158.629 45.6722C158.017 45.9962 157.458 46.4124 156.972 46.9062V58.5062L153.112 58.5052Z" fill="white"/>
<path d="M182.175 58.5072C181.955 58.5229 181.737 58.4616 181.557 58.3339C181.378 58.2061 181.248 58.0199 181.191 57.8072L180.878 56.2582C180.555 56.6224 180.206 56.9617 179.832 57.2732C179.467 57.5751 179.071 57.8372 178.651 58.0552C178.219 58.2781 177.762 58.4492 177.29 58.5652C176.775 58.6869 176.247 58.7454 175.718 58.7392C174.884 58.752 174.059 58.5653 173.312 58.1946C172.566 57.8239 171.918 57.28 171.424 56.6082C170.862 55.8352 170.45 54.9638 170.209 54.0392C169.906 52.8977 169.761 51.7201 169.778 50.5392C169.768 49.4157 169.932 48.2975 170.264 47.2242C170.557 46.2592 171.029 45.3576 171.654 44.5662C172.242 43.8285 172.983 43.2276 173.826 42.8052C174.713 42.3765 175.689 42.1608 176.674 42.1752C177.463 42.1532 178.247 42.3001 178.974 42.6062C179.602 42.8881 180.177 43.2761 180.674 43.7532V35.2742H184.537V58.5072H182.175ZM177.032 55.6782C177.748 55.6999 178.456 55.5271 179.081 55.1782C179.692 54.8011 180.23 54.319 180.673 53.7542V46.5622C180.295 46.0769 179.804 45.6914 179.243 45.4392C178.717 45.2174 178.152 45.1051 177.581 45.1092C177.034 45.1017 176.492 45.2144 175.993 45.4392C175.514 45.6628 175.1 46.0037 174.788 46.4302C174.431 46.9403 174.174 47.5134 174.03 48.1192C173.841 48.9105 173.752 49.7226 173.765 50.5362C173.751 51.3374 173.827 52.1378 173.991 52.9222C174.106 53.4892 174.326 54.03 174.638 54.5172C174.893 54.904 175.251 55.2121 175.672 55.4072C176.1 55.5945 176.564 55.6879 177.031 55.6812" fill="white"/>
<path d="M206.805 50.1652C206.957 50.5232 207.105 50.8892 207.252 51.2522C207.396 50.8772 207.552 50.5092 207.704 50.1412C207.856 49.7732 208.026 49.4272 208.204 49.0952L214.896 36.5732C214.964 36.4357 215.05 36.3085 215.153 36.1952C215.236 36.1061 215.339 36.0376 215.453 35.9952C215.571 35.9522 215.695 35.9256 215.821 35.9162C215.954 35.9068 216.115 35.9022 216.304 35.9022H219.479V58.5042H215.772V43.9042C215.772 43.6322 215.779 43.3362 215.796 43.0122C215.813 42.6882 215.834 42.3632 215.866 42.0282L209.033 54.8482C208.892 55.1232 208.682 55.3569 208.424 55.5262C208.163 55.6923 207.858 55.7769 207.548 55.7692H206.968C206.659 55.7764 206.355 55.6919 206.095 55.5262C205.836 55.357 205.625 55.1233 205.484 54.8482L198.558 41.9822C198.601 42.3242 198.63 42.6602 198.645 42.9902C198.66 43.3202 198.669 43.6232 198.669 43.9042V58.5042H194.969V35.8992H198.133C198.321 35.8992 198.482 35.8992 198.619 35.9132C198.744 35.9228 198.867 35.9494 198.985 35.9922C199.1 36.0359 199.204 36.1041 199.29 36.1922C199.397 36.3037 199.487 36.4312 199.555 36.5702L206.309 49.1232C206.487 49.4572 206.653 49.8042 206.802 50.1622" fill="white"/>
<path d="M236.394 58.5042H234.657C234.362 58.5187 234.067 58.4625 233.798 58.3402C233.679 58.2659 233.577 58.1688 233.496 58.0544C233.416 57.94 233.359 57.8108 233.329 57.6742L232.985 56.5362C232.603 56.8783 232.203 57.1988 231.785 57.4962C231.404 57.7677 230.998 58.0021 230.573 58.1962C230.147 58.3873 229.701 58.5292 229.243 58.6192C228.729 58.717 228.206 58.7639 227.682 58.7592C227.046 58.7655 226.413 58.6731 225.806 58.4852C225.26 58.3189 224.755 58.0376 224.327 57.6602C223.907 57.2848 223.579 56.8182 223.367 56.2962C223.125 55.6926 223.007 55.0463 223.021 54.3962C223.027 53.7673 223.191 53.1501 223.5 52.6022C223.884 51.9431 224.43 51.3925 225.085 51.0022C226.003 50.4563 227 50.0572 228.041 49.8192C229.545 49.4737 231.085 49.3135 232.628 49.3422V48.3972C232.695 47.5415 232.454 46.69 231.947 45.9972C231.696 45.7287 231.388 45.5194 231.046 45.3847C230.704 45.25 230.337 45.1931 229.97 45.2182C229.441 45.2039 228.913 45.2768 228.407 45.4342C228.03 45.5626 227.666 45.727 227.32 45.9252C227.012 46.1102 226.728 46.2742 226.469 46.4252C226.205 46.5698 225.909 46.6442 225.608 46.6412C225.368 46.6486 225.132 46.5785 224.935 46.4412C224.751 46.3077 224.597 46.1374 224.483 45.9412L223.783 44.7072C225.594 43.0287 227.985 42.1179 230.453 42.1662C231.312 42.1502 232.165 42.3063 232.962 42.6252C233.67 42.9137 234.308 43.3517 234.831 43.9092C235.353 44.4733 235.751 45.1411 235.998 45.8692C236.271 46.6741 236.406 47.5193 236.398 48.3692L236.394 58.5042ZM228.894 56.0962C229.261 56.0991 229.628 56.0629 229.988 55.9882C230.315 55.9205 230.633 55.8123 230.933 55.6662C231.237 55.5196 231.526 55.3423 231.794 55.1372C232.09 54.9077 232.37 54.6577 232.631 54.3892V51.7042C231.685 51.6894 230.74 51.7604 229.807 51.9162C229.179 52.0189 228.567 52.2018 227.986 52.4602C227.597 52.6254 227.26 52.892 227.009 53.2322C226.819 53.5162 226.719 53.8505 226.72 54.1922C226.694 54.4667 226.735 54.7435 226.839 54.9988C226.944 55.254 227.109 55.48 227.32 55.6572C227.783 55.9686 228.334 56.1228 228.891 56.0972" fill="white"/>
<path d="M245.464 58.7572C244.877 58.7944 244.288 58.7086 243.736 58.5052C243.184 58.3018 242.681 57.9854 242.258 57.5762C241.468 56.6795 241.065 55.507 241.135 54.3142V45.3592H239.51C239.312 45.3628 239.119 45.2913 238.971 45.1592C238.891 45.0797 238.83 44.9839 238.791 44.8784C238.752 44.7729 238.736 44.6603 238.745 44.5482V43.0112L241.326 42.5882L242.139 38.2132C242.17 38.0204 242.274 37.8466 242.428 37.7272C242.594 37.6091 242.794 37.549 242.998 37.5562H244.998V42.6052H249.219V45.3592H244.998V54.0492C244.973 54.4726 245.106 54.8903 245.373 55.2202C245.498 55.3599 245.653 55.4703 245.826 55.5434C245.999 55.6166 246.185 55.6506 246.373 55.6432C246.576 55.648 246.779 55.6197 246.973 55.5592C247.117 55.5076 247.259 55.4475 247.396 55.3792C247.516 55.3142 247.622 55.2562 247.716 55.1992C247.8 55.1444 247.897 55.1142 247.997 55.1122C248.098 55.1078 248.197 55.1386 248.278 55.1992C248.367 55.2748 248.446 55.3611 248.514 55.4562L249.671 57.3322C249.099 57.808 248.44 58.1698 247.732 58.3982C247 58.6368 246.234 58.7586 245.464 58.7572Z" fill="white"/>
<path d="M252.295 58.5042V35.2712H256.156V44.2002C256.766 43.6172 257.462 43.1321 258.22 42.7622C259.048 42.381 259.952 42.1943 260.863 42.2162C261.662 42.201 262.456 42.3519 263.194 42.6592C263.85 42.94 264.432 43.3689 264.894 43.9122C265.361 44.4788 265.711 45.1333 265.921 45.8372C266.162 46.6356 266.281 47.4661 266.272 48.3002V58.5042H262.411V48.2962C262.462 47.4805 262.22 46.6735 261.729 46.0202C261.471 45.742 261.154 45.5255 260.8 45.387C260.447 45.2485 260.067 45.1915 259.689 45.2202C259.035 45.2157 258.39 45.3709 257.81 45.6722C257.198 45.9962 256.639 46.4124 256.153 46.9062V58.5062L252.295 58.5042Z" fill="white"/>
<path d="M276.7 42.2162C277.653 42.2056 278.599 42.3693 279.493 42.6992C280.319 43.0069 281.07 43.4892 281.693 44.1132C282.328 44.7639 282.818 45.542 283.131 46.3962C283.49 47.3853 283.665 48.4319 283.648 49.4842C283.65 49.7268 283.637 49.9693 283.607 50.2102C283.592 50.3687 283.545 50.5226 283.468 50.6622C283.401 50.7684 283.302 50.8502 283.185 50.8952C283.045 50.9457 282.896 50.9694 282.747 50.9652H272.835C272.827 52.2949 273.299 53.5829 274.165 54.5922C274.57 54.9836 275.05 55.2883 275.576 55.4876C276.103 55.6869 276.665 55.7766 277.227 55.7512C277.775 55.7616 278.321 55.6877 278.846 55.5322C279.255 55.4042 279.652 55.2416 280.034 55.0462C280.373 54.8682 280.671 54.7072 280.926 54.5602C281.151 54.4247 281.407 54.3502 281.669 54.3442C281.81 54.3396 281.95 54.372 282.075 54.4382C282.194 54.5022 282.297 54.5929 282.375 54.7032L283.501 56.1102C283.087 56.5991 282.603 57.0231 282.063 57.3682C281.541 57.7016 280.983 57.9744 280.399 58.1812C279.826 58.3824 279.234 58.5267 278.633 58.6122C278.054 58.6931 277.471 58.7349 276.887 58.7372C275.825 58.7463 274.77 58.5578 273.777 58.1812C272.836 57.8202 271.983 57.2609 271.277 56.5412C270.538 55.7699 269.969 54.853 269.605 53.8492C269.177 52.6596 268.97 51.402 268.994 50.1382C268.986 49.0854 269.166 48.0396 269.526 47.0502C269.861 46.1175 270.38 45.2613 271.051 44.5322C271.732 43.8039 272.557 43.225 273.473 42.8322C274.495 42.4044 275.594 42.1923 276.701 42.2092M276.78 44.9752C276.298 44.9475 275.815 45.0177 275.361 45.1815C274.907 45.3453 274.49 45.5992 274.137 45.9282C273.45 46.6751 273.023 47.6244 272.92 48.6342H280.174C280.178 48.1555 280.111 47.679 279.974 47.2202C279.848 46.7924 279.635 46.3951 279.349 46.0532C279.059 45.7134 278.695 45.4437 278.286 45.2642C277.812 45.0626 277.301 44.9641 276.786 44.9752" fill="white"/>
<path d="M286.785 58.5052V42.4642H289.145C289.365 42.4484 289.584 42.5096 289.764 42.6373C289.943 42.765 290.073 42.9512 290.131 43.1642L290.381 44.3522C290.655 44.0447 290.95 43.757 291.264 43.4912C291.569 43.2336 291.899 43.008 292.25 42.8182C292.607 42.6276 292.985 42.4789 293.376 42.3752C293.807 42.2614 294.251 42.2063 294.697 42.2112C295.6 42.1748 296.485 42.4652 297.191 43.0292C297.865 43.6128 298.37 44.3672 298.653 45.2132C298.884 44.7053 299.201 44.2415 299.591 43.8422C299.952 43.4714 300.369 43.1585 300.825 42.9142C301.276 42.6733 301.757 42.4943 302.256 42.3822C302.756 42.268 303.267 42.2107 303.779 42.2112C304.585 42.1944 305.386 42.3301 306.141 42.6112C306.807 42.8688 307.403 43.2799 307.88 43.8112C308.367 44.3646 308.731 45.0144 308.95 45.7182C309.207 46.5533 309.331 47.4235 309.318 48.2972V58.5052H305.455V48.2952C305.517 47.4701 305.278 46.6506 304.782 45.9882C304.532 45.7212 304.226 45.5134 303.885 45.3799C303.545 45.2463 303.179 45.1904 302.814 45.2162C302.438 45.2124 302.065 45.2803 301.714 45.4162C301.38 45.5476 301.076 45.7475 300.824 46.0032C300.558 46.277 300.354 46.6043 300.224 46.9632C300.073 47.39 300 47.8405 300.008 48.2932V58.5052H296.128V48.2952C296.2 47.4603 295.971 46.6271 295.481 45.9472C295.234 45.6926 294.935 45.4952 294.604 45.3689C294.272 45.2426 293.918 45.1905 293.564 45.2162C293.019 45.2141 292.483 45.3559 292.01 45.6272C291.499 45.9276 291.041 46.3112 290.656 46.7622V58.5052H286.785Z" fill="white"/>
<path d="M325.682 58.5042H323.945C323.65 58.5187 323.355 58.4625 323.086 58.3402C322.967 58.2659 322.865 58.1688 322.784 58.0544C322.704 57.94 322.647 57.8108 322.617 57.6742L322.273 56.5362C321.891 56.8783 321.491 57.1988 321.073 57.4962C320.692 57.7677 320.286 58.0021 319.861 58.1962C319.435 58.3873 318.989 58.5292 318.531 58.6192C318.017 58.717 317.494 58.7639 316.97 58.7592C316.334 58.7655 315.701 58.6731 315.094 58.4852C314.548 58.3189 314.043 58.0376 313.615 57.6602C313.195 57.2848 312.867 56.8182 312.655 56.2962C312.413 55.6926 312.295 55.0463 312.309 54.3962C312.316 53.7657 312.483 53.1474 312.795 52.5992C313.179 51.9401 313.725 51.3895 314.38 50.9992C315.298 50.4533 316.295 50.0541 317.336 49.8162C318.838 49.4731 320.377 49.315 321.918 49.3452V48.4002C321.985 47.5445 321.744 46.693 321.237 46.0002C320.986 45.7317 320.678 45.5224 320.336 45.3877C319.994 45.253 319.627 45.1961 319.26 45.2212C318.731 45.2068 318.203 45.2798 317.697 45.4372C317.32 45.5656 316.956 45.7301 316.61 45.9282C316.302 46.1132 316.018 46.2772 315.759 46.4282C315.495 46.5728 315.199 46.6472 314.898 46.6442C314.658 46.6516 314.422 46.5815 314.225 46.4442C314.041 46.3107 313.887 46.1404 313.773 45.9442L313.073 44.7102C314.886 43.0334 317.279 42.1254 319.748 42.1772C320.607 42.1613 321.46 42.3173 322.257 42.6362C322.965 42.9247 323.603 43.3627 324.126 43.9202C324.648 44.4843 325.046 45.1521 325.293 45.8802C325.566 46.6851 325.701 47.5303 325.693 48.3802L325.682 58.5042ZM318.182 56.0962C318.549 56.0991 318.916 56.0629 319.276 55.9882C319.603 55.9205 319.921 55.8123 320.221 55.6662C320.525 55.5196 320.814 55.3423 321.082 55.1372C321.378 54.9077 321.658 54.6577 321.919 54.3892V51.7042C320.973 51.6894 320.028 51.7604 319.095 51.9162C318.467 52.0189 317.855 52.2018 317.274 52.4602C316.885 52.6254 316.548 52.892 316.297 53.2322C316.107 53.5162 316.007 53.8505 316.008 54.1922C315.982 54.4667 316.023 54.7435 316.127 54.9988C316.232 55.254 316.397 55.48 316.608 55.6572C317.071 55.9686 317.622 56.1228 318.179 56.0972" fill="white"/>
<path d="M334.752 58.7572C334.165 58.7944 333.576 58.7086 333.024 58.5052C332.472 58.3018 331.969 57.9854 331.546 57.5762C330.756 56.6795 330.353 55.507 330.423 54.3142V45.3592H328.795C328.597 45.3628 328.404 45.2913 328.256 45.1592C328.176 45.0797 328.115 44.9839 328.076 44.8784C328.037 44.7729 328.021 44.6603 328.03 44.5482V43.0112L330.611 42.5882L331.424 38.2132C331.455 38.0204 331.559 37.8466 331.713 37.7272C331.879 37.6091 332.079 37.549 332.283 37.5562H334.283V42.6052H338.504V45.3592H334.283V54.0492C334.258 54.4726 334.391 54.8903 334.658 55.2202C334.783 55.3599 334.938 55.4703 335.111 55.5434C335.284 55.6166 335.47 55.6506 335.658 55.6432C335.861 55.648 336.064 55.6197 336.258 55.5592C336.402 55.5076 336.544 55.4475 336.681 55.3792C336.801 55.3142 336.907 55.2562 337.001 55.1992C337.085 55.1444 337.182 55.1142 337.282 55.1122C337.383 55.1078 337.482 55.1386 337.563 55.1992C337.652 55.2748 337.731 55.3611 337.799 55.4562L338.956 57.3322C338.384 57.808 337.725 58.1699 337.017 58.3982C336.285 58.6368 335.519 58.7576 334.749 58.7562" fill="white"/>
<path d="M346.274 37.7892C346.277 38.1127 346.209 38.4329 346.074 38.7272C345.941 39.0131 345.758 39.2729 345.533 39.4942C345.304 39.7157 345.037 39.8933 344.744 40.0182C344.437 40.1479 344.108 40.2143 343.775 40.2132C343.45 40.2138 343.128 40.1474 342.83 40.0182C342.542 39.8925 342.28 39.7148 342.056 39.4942C341.836 39.2734 341.658 39.0132 341.534 38.7272C341.4 38.4326 341.332 38.1126 341.334 37.7892C341.332 37.4558 341.401 37.1257 341.534 36.8202C341.78 36.2329 342.247 35.766 342.834 35.5202C343.131 35.387 343.453 35.3188 343.779 35.3202C344.112 35.3184 344.443 35.3865 344.748 35.5202C345.042 35.6425 345.31 35.8197 345.537 36.0422C345.764 36.2671 345.948 36.5322 346.078 36.8242C346.212 37.1294 346.281 37.4596 346.278 37.7932M345.698 58.5082H341.837V42.4652H345.698V58.5082Z" fill="white"/>
<path d="M361.328 45.8602C361.231 45.9886 361.117 46.1042 360.991 46.2042C360.85 46.2963 360.683 46.3396 360.515 46.3272C360.309 46.3254 360.109 46.2635 359.938 46.1492C359.75 46.0292 359.527 45.8942 359.267 45.7432C358.971 45.5769 358.659 45.4406 358.336 45.3362C357.903 45.2057 357.451 45.1449 356.999 45.1562C356.385 45.1432 355.776 45.2683 355.217 45.5222C354.711 45.7643 354.273 46.1278 353.942 46.5802C353.583 47.0801 353.326 47.6453 353.184 48.2442C353.009 48.9676 352.925 49.71 352.934 50.4542C352.923 51.224 353.015 51.9918 353.208 52.7372C353.36 53.3441 353.628 53.9159 353.997 54.4212C354.325 54.8599 354.754 55.213 355.248 55.4502C355.766 55.6922 356.333 55.8133 356.905 55.8042C357.412 55.8221 357.918 55.7444 358.396 55.5752C358.736 55.4466 359.06 55.2788 359.361 55.0752C359.621 54.8952 359.847 54.7292 360.039 54.5752C360.223 54.4285 360.451 54.3488 360.686 54.3492C360.824 54.3421 360.962 54.3718 361.085 54.4352C361.208 54.4987 361.312 54.5935 361.386 54.7102L362.497 56.1172C362.092 56.5975 361.623 57.0207 361.104 57.3752C360.619 57.7051 360.098 57.9779 359.55 58.1882C359.011 58.391 358.452 58.5355 357.883 58.6192C357.318 58.7005 356.749 58.7416 356.178 58.7422C355.217 58.7479 354.265 58.5598 353.378 58.1892C352.506 57.8217 351.725 57.2693 351.088 56.5702C350.408 55.8124 349.883 54.9292 349.541 53.9702C349.142 52.843 348.948 51.6536 348.969 50.4582C348.96 49.3465 349.131 48.2407 349.477 47.1842C349.793 46.2213 350.301 45.3327 350.971 44.5722C351.648 43.825 352.48 43.2355 353.41 42.8452C354.472 42.411 355.611 42.1983 356.758 42.2202C357.836 42.1972 358.908 42.3946 359.907 42.8002C360.817 43.1898 361.643 43.7525 362.339 44.4572L361.328 45.8602Z" fill="white"/>
<path d="M374.493 45.5952C374.413 45.7361 374.301 45.8563 374.166 45.9462C374.032 46.0191 373.88 46.0537 373.728 46.0462C373.519 46.0408 373.314 45.9882 373.128 45.8922C372.914 45.7922 372.666 45.6712 372.385 45.5412C372.073 45.3998 371.752 45.2815 371.423 45.1872C371.007 45.0772 370.578 45.0254 370.148 45.0332C369.512 44.997 368.881 45.1663 368.348 45.5162C368.142 45.656 367.974 45.8448 367.86 46.0656C367.745 46.2865 367.687 46.5324 367.691 46.7812C367.687 46.9407 367.714 47.0995 367.772 47.2484C367.829 47.3974 367.915 47.5335 368.025 47.6492C368.283 47.9067 368.585 48.116 368.917 48.2672C369.324 48.4584 369.744 48.6185 370.175 48.7462C370.644 48.8832 371.125 49.0392 371.616 49.2052C372.104 49.371 372.583 49.5612 373.052 49.7752C373.51 49.9814 373.935 50.2555 374.312 50.5882C374.683 50.9197 374.986 51.321 375.202 51.7692C375.44 52.2883 375.555 52.8553 375.539 53.4262C375.545 54.1594 375.402 54.8862 375.118 55.5622C374.837 56.2097 374.415 56.7858 373.882 57.2482C373.292 57.7482 372.608 58.1259 371.871 58.3592C370.458 58.7867 368.963 58.8724 367.51 58.6092C366.994 58.512 366.488 58.3729 365.995 58.1932C365.528 58.0258 365.077 57.8166 364.648 57.5682C364.26 57.3459 363.897 57.0838 363.563 56.7862L364.453 55.3162C364.556 55.1521 364.695 55.0131 364.859 54.9092C365.041 54.8091 365.246 54.76 365.453 54.7672C365.694 54.7671 365.931 54.8365 366.134 54.9672C366.348 55.1042 366.596 55.2512 366.877 55.4052C367.196 55.5784 367.528 55.7256 367.87 55.8452C368.338 55.9912 368.826 56.0588 369.316 56.0452C369.716 56.0535 370.115 55.9975 370.497 55.8792C370.793 55.789 371.068 55.6438 371.31 55.4512C371.513 55.2854 371.674 55.0735 371.779 54.8332C371.877 54.6036 371.928 54.3567 371.928 54.1072C371.941 53.7669 371.82 53.4351 371.591 53.1832C371.334 52.9224 371.032 52.7106 370.699 52.5582C370.289 52.3671 369.865 52.2079 369.431 52.0822C368.957 51.9428 368.473 51.7898 367.978 51.6232C367.483 51.4537 366.997 51.2578 366.523 51.0362C366.059 50.8199 365.632 50.5317 365.258 50.1822C364.878 49.8257 364.575 49.3952 364.368 48.9172C364.128 48.3434 364.012 47.725 364.029 47.1032C364.027 46.4573 364.161 45.8183 364.421 45.2272C364.685 44.6304 365.078 44.0991 365.571 43.6712C366.128 43.2001 366.77 42.8394 367.462 42.6082C368.306 42.3278 369.192 42.1925 370.081 42.2082C371.113 42.1937 372.138 42.3791 373.1 42.7542C373.943 43.0785 374.713 43.5673 375.366 44.1922L374.493 45.5952Z" fill="white"/>
<path d="M59.061 52.3822H53.387V61.5702H65.852L73.806 54.5032V15.0032H79.889V6.10316H53.389V15.0032H59.063L59.061 52.3822Z" fill="white"/>
<path d="M33.242 52.3822H27.159V15.0012H32.833V6.10116H6.331V15.0012H12.414V54.5012L20.614 61.5682H33.242V52.3822Z" fill="white"/>
<path d="M512.78 67.9552H136.291V70.3602H512.78V67.9552Z" fill="white"/>
<path d="M144.208 100.934C144.973 100.947 145.732 100.804 146.44 100.513C147.073 100.249 147.639 99.8472 148.097 99.3372C148.563 98.8129 148.918 98.1995 149.14 97.5342C149.383 96.7878 149.503 96.007 149.496 95.2222V83.0222H152.196V95.2222C152.206 96.3205 152.021 97.4119 151.648 98.4452C151.299 99.3995 150.761 100.273 150.065 101.014C149.354 101.751 148.496 102.33 147.547 102.714C145.4 103.535 143.026 103.535 140.879 102.714C139.928 102.33 139.069 101.751 138.356 101.014C137.657 100.274 137.115 99.4005 136.764 98.4452C136.39 97.4121 136.204 96.3207 136.213 95.2222V83.0222H138.913V95.2122C138.904 95.9972 139.024 96.7783 139.269 97.5242C139.488 98.19 139.842 98.8037 140.308 99.3272C140.77 99.839 141.339 100.243 141.975 100.51C142.682 100.804 143.442 100.949 144.208 100.934Z" fill="white"/>
<path d="M160.628 83.1102C160.784 83.2058 160.92 83.3316 161.028 83.4802L172.658 98.6122C172.629 98.3712 172.61 98.1362 172.603 97.9052C172.596 97.6742 172.589 97.4552 172.589 97.2412V83.0192H174.97V103.099H173.595C173.409 103.105 173.224 103.066 173.056 102.986C172.887 102.893 172.741 102.763 172.628 102.606L161.013 87.4882C161.032 87.7242 161.047 87.9528 161.056 88.1742C161.066 88.4002 161.07 88.6052 161.07 88.7922V103.099H158.687V83.0192H160.087C160.272 83.0084 160.457 83.0396 160.628 83.1102Z" fill="white"/>
<path d="M184.917 83.0172H182.199V103.097H184.917V83.0172Z" fill="white"/>
<path d="M189.793 83.0192H191.963C192.175 83.0089 192.383 83.0737 192.552 83.2022C192.703 83.3248 192.819 83.4848 192.889 83.6662L198.563 97.8292C198.7 98.169 198.82 98.5158 198.921 98.8682C199.027 99.2408 199.132 99.6282 199.236 100.03C199.32 99.6302 199.412 99.2412 199.508 98.8682C199.6 98.5148 199.715 98.1677 199.852 97.8292L205.497 83.6662C205.574 83.4945 205.689 83.3429 205.834 83.2232C205.999 83.0858 206.209 83.0146 206.423 83.0232H208.612L200.431 103.103H197.974L189.793 83.0192Z" fill="white"/>
<path d="M225.367 83.0192V85.2342H215.726V91.9022H223.526V94.0342H215.726V100.887H225.367V103.1H212.994V83.0192H225.367Z" fill="white"/>
<path d="M234.08 94.7192V103.099H231.38V83.0192H237.054C238.164 83.0003 239.271 83.1298 240.347 83.4042C241.179 83.6176 241.958 83.9972 242.639 84.5202C243.225 84.9847 243.685 85.5893 243.976 86.2782C244.272 87.0082 244.42 87.7903 244.409 88.5782C244.415 89.2559 244.301 89.9293 244.072 90.5672C243.855 91.1768 243.526 91.7399 243.1 92.2272C242.657 92.7311 242.132 93.1559 241.546 93.4832C240.893 93.8439 240.192 94.108 239.463 94.2672C239.821 94.4834 240.128 94.7747 240.363 95.1212L246.22 103.095H243.807C243.589 103.109 243.372 103.063 243.179 102.961C242.987 102.859 242.826 102.706 242.715 102.518L237.503 95.3452C237.37 95.1459 237.192 94.9811 236.983 94.8642C236.718 94.7498 236.429 94.6988 236.141 94.7152L234.08 94.7192ZM234.08 92.7442H236.926C237.636 92.7562 238.345 92.6598 239.026 92.4582C239.58 92.2914 240.094 92.0149 240.539 91.6452C240.939 91.3042 241.253 90.8739 241.455 90.3892C241.665 89.8789 241.769 89.3317 241.763 88.7802C241.797 88.2682 241.708 87.7554 241.502 87.2854C241.296 86.8154 240.98 86.402 240.58 86.0802C239.536 85.3999 238.299 85.0796 237.056 85.1682H234.08V92.7442Z" fill="white"/>
<path d="M261.251 86.1592C261.183 86.2796 261.093 86.3864 260.986 86.4742C260.879 86.5483 260.75 86.5855 260.62 86.5802C260.414 86.5615 260.221 86.477 260.067 86.3392C259.858 86.1832 259.591 86.0072 259.267 85.8122C258.897 85.5997 258.507 85.4249 258.103 85.2902C257.572 85.1174 257.016 85.0359 256.458 85.0492C255.91 85.0394 255.365 85.1233 254.846 85.2972C254.416 85.438 254.018 85.6638 253.677 85.9612C253.369 86.2328 253.127 86.571 252.97 86.9502C252.807 87.3375 252.725 87.754 252.729 88.1742C252.709 88.6736 252.855 89.1656 253.143 89.5742C253.44 89.9606 253.812 90.283 254.237 90.5222C254.727 90.7994 255.244 91.0265 255.779 91.2002C256.351 91.3902 256.941 91.5902 257.542 91.7942C258.143 91.9982 258.733 92.2292 259.308 92.4942C259.868 92.7396 260.387 93.0672 260.85 93.4662C261.31 93.8648 261.683 94.3544 261.944 94.9042C262.239 95.5638 262.381 96.2818 262.358 97.0042C262.364 97.8494 262.212 98.6884 261.908 99.4772C261.62 100.233 261.174 100.919 260.599 101.488C259.994 102.078 259.275 102.536 258.485 102.835C257.573 103.173 256.605 103.339 255.632 103.323C254.411 103.339 253.201 103.098 252.079 102.616C251.047 102.17 250.116 101.52 249.342 100.704L250.126 99.4152C250.201 99.3137 250.293 99.2258 250.398 99.1552C250.504 99.0856 250.629 99.0488 250.756 99.0492C251.01 99.0745 251.247 99.1856 251.429 99.3642C251.73 99.6152 252.046 99.8489 252.374 100.064C252.805 100.344 253.266 100.577 253.747 100.757C254.378 100.983 255.045 101.089 255.715 101.072C256.301 101.081 256.884 100.991 257.44 100.807C257.913 100.647 258.349 100.392 258.72 100.057C259.071 99.7365 259.346 99.342 259.526 98.9022C259.718 98.4258 259.814 97.9159 259.807 97.4022C259.829 96.8744 259.686 96.3529 259.396 95.9112C259.106 95.5129 258.734 95.1809 258.306 94.9372C257.822 94.6587 257.308 94.4353 256.774 94.2712C256.199 94.0912 255.61 93.9032 255.008 93.7132C254.408 93.5225 253.818 93.2991 253.242 93.0442C252.681 92.8016 252.163 92.4711 251.707 92.0652C251.245 91.6438 250.875 91.131 250.622 90.5592C250.068 89.1793 250.068 87.639 250.622 86.2592C250.898 85.5958 251.306 84.9958 251.822 84.4962C252.38 83.9586 253.04 83.5389 253.763 83.2622C254.61 82.9405 255.51 82.7837 256.416 82.8002C257.463 82.7876 258.503 82.9679 259.485 83.3322C260.389 83.6749 261.214 84.1998 261.907 84.8742L261.251 86.1592Z" fill="white"/>
<path d="M270.862 83.0172H268.144V103.097H270.862V83.0172Z" fill="white"/>
<path d="M291.737 83.0192V85.3042H285.25V103.098H282.532V85.3042H276.016V83.0192H291.737Z" fill="white"/>
<path d="M304.147 95.1112V103.097H301.447V95.1112L294.092 83.0192H296.476C296.683 83.0075 296.886 83.0727 297.048 83.2022C297.193 83.3297 297.316 83.4808 297.411 83.6492L302.011 91.4492C302.184 91.7494 302.341 92.0585 302.482 92.3752C302.605 92.6642 302.72 92.9502 302.824 93.2312C302.924 92.9422 303.038 92.6512 303.161 92.3602C303.295 92.0463 303.449 91.7417 303.623 91.4482L308.205 83.6482C308.297 83.49 308.412 83.3464 308.547 83.2222C308.704 83.0836 308.908 83.0118 309.117 83.0222H311.525L304.147 95.1112Z" fill="white"/>
<path d="M341.319 93.0672C341.336 94.4797 341.094 95.8833 340.607 97.2092C340.16 98.4155 339.473 99.5184 338.587 100.451C337.705 101.367 336.638 102.085 335.458 102.558C332.858 103.559 329.979 103.559 327.379 102.558C326.201 102.083 325.136 101.365 324.254 100.451C323.37 99.5187 322.685 98.4155 322.241 97.2092C321.285 94.5312 321.285 91.6051 322.241 88.9272C322.685 87.7186 323.37 86.6129 324.254 85.6772C325.135 84.7586 326.198 84.0354 327.376 83.5542C329.974 82.544 332.857 82.544 335.455 83.5542C336.636 84.0335 337.703 84.7574 338.584 85.6782C339.47 86.6142 340.157 87.7197 340.604 88.9282C341.092 90.2533 341.333 91.6563 341.316 93.0682M338.531 93.0682C338.547 91.9413 338.375 90.8197 338.023 89.7492C337.723 88.8313 337.237 87.9849 336.597 87.2622C335.975 86.5832 335.21 86.0502 334.358 85.7012C333.422 85.3252 332.42 85.1389 331.411 85.1532C330.409 85.1394 329.414 85.3257 328.484 85.7012C327.628 86.0481 326.86 86.5813 326.235 87.2622C325.588 87.9818 325.099 88.829 324.799 89.7492C324.125 91.9092 324.125 94.2231 324.799 96.3832C325.101 97.3002 325.59 98.1447 326.235 98.8632C326.859 99.5432 327.628 100.075 328.484 100.419C329.415 100.787 330.41 100.969 331.411 100.955C332.419 100.97 333.42 100.788 334.358 100.419C335.21 100.073 335.975 99.5413 336.597 98.8632C337.235 98.1416 337.721 97.2979 338.023 96.3832C338.375 95.3141 338.547 94.1937 338.531 93.0682Z" fill="white"/>
<path d="M359.225 83.0192V85.2342H349.584V92.2532H357.822V94.4682H349.584V103.098H346.854V83.0192H359.225Z" fill="white"/>
<path d="M388.408 103.098H383.642V94.4682H375.342V103.098H370.579V82.6832H375.342V91.2182H383.642V82.6832H388.405L388.408 103.098Z" fill="white"/>
<path d="M412.62 92.8842C412.633 94.2933 412.373 95.6916 411.855 97.0022C411.366 98.2394 410.635 99.3665 409.705 100.317C408.754 101.274 407.617 102.025 406.364 102.523C403.569 103.588 400.481 103.588 397.686 102.523C396.436 102.034 395.3 101.291 394.351 100.341C393.402 99.3906 392.661 98.2542 392.173 97.0032C391.15 94.3524 391.15 91.4159 392.173 88.7652C392.659 87.5277 393.392 86.4024 394.328 85.4582C395.288 84.5059 396.43 83.7576 397.686 83.2582C399.067 82.7104 400.542 82.4387 402.028 82.4582C403.513 82.438 404.987 82.7119 406.365 83.2642C407.616 83.7672 408.752 84.5175 409.706 85.4702C410.637 86.4171 411.368 87.5418 411.856 88.7772C412.373 90.0838 412.633 91.478 412.621 92.8832M407.772 92.8832C407.785 91.9599 407.653 91.0403 407.38 90.1582C407.15 89.4036 406.766 88.705 406.252 88.1062C405.76 87.543 405.144 87.1017 404.452 86.8172C403.682 86.5069 402.857 86.3539 402.027 86.3672C401.19 86.3531 400.36 86.5061 399.583 86.8172C398.888 87.1004 398.269 87.5417 397.774 88.1062C397.262 88.7062 396.878 89.4044 396.646 90.1582C396.123 91.9423 396.123 93.839 396.646 95.6232C396.879 96.3766 397.263 97.0748 397.774 97.6752C398.268 98.2377 398.888 98.6762 399.583 98.9552C400.36 99.2627 401.191 99.4132 402.027 99.3982C402.857 99.4124 403.681 99.2619 404.452 98.9552C405.144 98.6748 405.76 98.2365 406.252 97.6752C406.765 97.076 407.149 96.3775 407.38 95.6232C407.653 94.736 407.786 93.8114 407.772 92.8832Z" fill="white"/>
<path d="M424.079 99.3572C424.661 99.3676 425.239 99.2605 425.779 99.0422C426.265 98.8436 426.699 98.5356 427.047 98.1422C427.408 97.7238 427.677 97.2347 427.838 96.7062C428.031 96.0834 428.123 95.434 428.112 94.7822V82.6832H432.846V94.7772C432.861 95.9529 432.655 97.121 432.24 98.2212C431.854 99.2337 431.259 100.154 430.494 100.921C429.71 101.699 428.769 102.302 427.735 102.689C425.364 103.526 422.779 103.526 420.408 102.689C419.373 102.302 418.432 101.699 417.647 100.921C416.882 100.155 416.29 99.2343 415.908 98.2212C415.497 97.12 415.294 95.9523 415.308 94.7772V82.6832H420.044V94.7632C420.033 95.4159 420.125 96.0663 420.318 96.6902C420.479 97.2201 420.748 97.7108 421.109 98.1312C421.454 98.5307 421.888 98.8431 422.377 99.0432C422.917 99.2618 423.495 99.3689 424.077 99.3582" fill="white"/>
<path d="M448.014 86.8312C447.9 87.0263 447.75 87.1978 447.571 87.3362C447.396 87.4535 447.188 87.5117 446.977 87.5022C446.733 87.4947 446.495 87.4259 446.284 87.3022C446.036 87.1672 445.757 87.0132 445.445 86.8472C445.1 86.6662 444.74 86.5134 444.37 86.3902C443.927 86.2498 443.464 86.1823 442.999 86.1902C442.291 86.1359 441.588 86.3382 441.017 86.7602C440.8 86.9503 440.629 87.1867 440.516 87.4518C440.403 87.717 440.35 88.0041 440.363 88.2922C440.357 88.4804 440.389 88.668 440.456 88.8439C440.524 89.0198 440.625 89.1807 440.755 89.3172C441.053 89.6117 441.403 89.849 441.787 90.0172C442.26 90.2307 442.747 90.4115 443.245 90.5582C443.791 90.7192 444.345 90.9022 444.919 91.1022C445.49 91.3052 446.049 91.5412 446.593 91.8092C447.131 92.0762 447.623 92.4269 448.051 92.8482C448.489 93.2894 448.839 93.8104 449.081 94.3832C449.36 95.0743 449.493 95.8153 449.473 96.5602C449.48 97.4671 449.314 98.367 448.982 99.2112C448.664 100.019 448.18 100.751 447.56 101.359C446.902 101.996 446.119 102.488 445.26 102.805C444.267 103.168 443.217 103.345 442.16 103.327C441.509 103.327 440.859 103.261 440.221 103.132C439.568 103.005 438.929 102.82 438.309 102.579C437.703 102.346 437.12 102.06 436.565 101.723C436.05 101.419 435.575 101.052 435.151 100.631L436.551 98.4182C436.658 98.2469 436.808 98.1068 436.986 98.0122C437.169 97.9099 437.376 97.8568 437.586 97.8582C437.888 97.8652 438.182 97.9571 438.435 98.1232C438.721 98.3032 439.041 98.5012 439.402 98.7122C439.798 98.9454 440.213 99.1435 440.643 99.3042C441.173 99.4911 441.733 99.5808 442.295 99.5692C443.007 99.6111 443.712 99.4109 444.295 99.0012C444.545 98.7769 444.74 98.4976 444.864 98.1852C444.988 97.8729 445.037 97.536 445.009 97.2012C445.027 96.778 444.887 96.3631 444.617 96.0372C444.329 95.7205 443.977 95.468 443.585 95.2962C443.117 95.0834 442.633 94.9095 442.137 94.7762C441.593 94.6242 441.037 94.4612 440.468 94.2762C439.896 94.094 439.339 93.869 438.801 93.6032C438.261 93.3388 437.77 92.9833 437.351 92.5522C436.905 92.0842 436.555 91.5322 436.324 90.9282C436.04 90.1608 435.906 89.3461 435.929 88.5282C435.93 87.7567 436.087 86.9934 436.391 86.2842C436.705 85.549 437.168 84.8865 437.75 84.3382C438.388 83.7447 439.135 83.2813 439.95 82.9742C440.904 82.6168 441.918 82.443 442.937 82.4622C443.549 82.461 444.159 82.5092 444.763 82.6062C445.338 82.7008 445.904 82.8463 446.454 83.0412C446.97 83.2261 447.469 83.4563 447.945 83.7292C448.391 83.9811 448.806 84.2831 449.184 84.6292L448.014 86.8312Z" fill="white"/>
<path d="M467.35 82.6832V86.4382H461.604V103.097H456.87V86.4382H451.124V82.6832H467.35Z" fill="white"/>
<path d="M489.316 92.8842C489.329 94.2933 489.069 95.6916 488.551 97.0022C488.062 98.2394 487.331 99.3664 486.401 100.317C485.45 101.274 484.313 102.025 483.06 102.523C480.265 103.588 477.177 103.588 474.382 102.523C473.132 102.034 471.996 101.291 471.047 100.341C470.098 99.3907 469.357 98.2542 468.869 97.0032C467.846 94.3524 467.846 91.4159 468.869 88.7652C469.355 87.5277 470.088 86.4024 471.024 85.4582C471.984 84.5059 473.126 83.7576 474.382 83.2582C475.763 82.7104 477.238 82.4387 478.724 82.4582C480.209 82.438 481.683 82.7119 483.061 83.2642C484.312 83.7672 485.448 84.5175 486.402 85.4702C487.333 86.4171 488.064 87.5418 488.552 88.7772C489.069 90.0838 489.329 91.478 489.317 92.8832M484.468 92.8832C484.481 91.9599 484.349 91.0403 484.076 90.1582C483.846 89.4036 483.462 88.705 482.948 88.1062C482.456 87.543 481.84 87.1017 481.148 86.8172C480.378 86.5069 479.553 86.3539 478.723 86.3672C477.887 86.3531 477.056 86.5061 476.279 86.8172C475.584 87.1004 474.965 87.5417 474.47 88.1062C473.958 88.7062 473.574 89.4044 473.342 90.1582C472.819 91.9423 472.819 93.839 473.342 95.6232C473.575 96.3766 473.959 97.0748 474.47 97.6752C474.964 98.2377 475.584 98.6762 476.279 98.9552C477.056 99.2627 477.887 99.4132 478.723 99.3982C479.553 99.4124 480.377 99.2619 481.148 98.9552C481.84 98.6748 482.456 98.2365 482.948 97.6752C483.461 97.076 483.845 96.3775 484.076 95.6232C484.349 94.736 484.482 93.8114 484.468 92.8832Z" fill="white"/>
<path d="M495.3 82.7122C495.431 82.7275 495.558 82.7633 495.678 82.8182C495.796 82.8728 495.905 82.9457 496 83.0342C496.125 83.152 496.243 83.2783 496.351 83.4122L506.051 95.6742C506.013 95.2822 505.984 94.8992 505.967 94.5312C505.95 94.1632 505.938 93.8121 505.938 93.4852V82.6852H510.114V103.099H507.647C507.33 103.108 507.016 103.05 506.723 102.928C506.433 102.785 506.182 102.574 505.992 102.312L496.368 90.1532C496.394 90.5072 496.419 90.8532 496.438 91.1952C496.457 91.5372 496.464 91.8562 496.464 92.1552V103.099H492.291V82.6832H494.785C494.958 82.6813 495.13 82.691 495.302 82.7122" fill="white"/>
<path fill-rule="evenodd" clip-rule="evenodd" d="M105.715 52.3852V38.0782H76.503V17.7002H82.581V3.39616H50.681V17.6962H56.355V38.0782H29.855V17.7002H35.543V3.39616H3.626V17.6962H9.709V55.7432L19.621 64.2722H33.238V85.9142H27.155V100.208H59.069V85.9142H53.39V76.5402H79.476V85.9142H73.809V100.208H105.716V85.9142H99.632V52.3852H105.715ZM79.298 53.5032L70.41 61.3852H79.298V53.5032ZM53.387 52.3822H59.061L59.063 15.0032H53.389V6.10316H79.889V15.0032H73.806V54.5032L65.852 61.5702H53.387V52.3822ZM27.159 52.3822H33.242V61.5682H20.614L12.414 54.5012V15.0012H6.331V6.10116H32.833V15.0012H27.159V52.3822ZM103.009 40.7862V49.6862H96.931V88.6162H103.008V97.5082H76.508V88.6162H82.182V73.8362H50.689V88.6162H56.361V97.5082H29.861V88.6162H35.944V49.6862H29.861V40.7862H56.366V49.6862H50.689V64.2722H82.183V49.6862H76.509V40.7862H103.009Z" fill="#C8102E"/>
<path fill-rule="evenodd" clip-rule="evenodd" d="M108.56 55.2312V35.2312H79.36V20.5442H85.44V0.553162H47.84V20.5442H53.514V35.2332H32.703V20.5442H38.38V0.553162H0.779999V20.5442H6.863V57.0532L18.563 67.1242H30.394V83.0662H24.309V103.053H61.909V83.0662H56.239V79.3812H76.632V83.0662H70.957V103.053H108.557V83.0662H102.48V55.2312H108.56ZM105.715 52.3852V38.0782H76.503V17.7002H82.581V3.39616H50.681V17.6962H56.355V38.0782H29.855V17.7002H35.543V3.39616H3.626V17.6962H9.709V55.7432L19.621 64.2722H33.238V85.9142H27.155V100.208H59.069V85.9142H53.39V76.5402H79.476V85.9142H73.809V100.208H105.716V85.9142H99.632V52.3852H105.715ZM79.298 53.5032L70.41 61.3852H79.298V53.5032ZM53.387 52.3822H59.061L59.063 15.0032H53.389V6.10316H79.889V15.0032H73.806V54.5032L65.852 61.5702H53.387V52.3822ZM27.159 52.3822H33.242V61.5682H20.614L12.414 54.5012V15.0012H6.331V6.10116H32.833V15.0012H27.159V52.3822Z" fill="white"/>
<path d="M103.009 49.6862V40.7862H76.509V49.6862H82.183V64.2722H50.689V49.6862H56.366V40.7862H29.861V49.6862H35.944V88.6162H29.861V97.5082H56.361V88.6162H50.689V73.8362H82.182V88.6162H76.508V97.5082H103.008V88.6162H96.931V49.6862H103.009Z" fill="white"/>
</svg>
