<svg viewBox="0 0 24 24" fill="#fff" xmlns="http://www.w3.org/2000/svg">
    <path d="M12,5.8c-3.4,0-6.2,2.8-6.2,6.2s2.8,6.2,6.2,6.2s6.2-2.8,6.2-6.2S15.4,5.8,12,5.8z M12,15.9c-2.2,0-4-1.8-4-4s1.8-4,4-4 s4,1.8,4,4S14.2,15.9,12,15.9z M18.4,4.2c0.8,0,1.4,0.6,1.4,1.4S19.2,7,18.4,7S17,6.4,17,5.6S17.6,4.2,18.4,4.2z M22.1,2 c-1.3-1.3-3-2-5.1-2H7C2.8,0,0,2.8,0,7v9.9c0,2.1,0.7,3.9,2,5.2C3.3,23.3,5,24,7.1,24H17c2.1,0,3.8-0.7,5.1-1.9c1.3-1.3,2-3,2-5.1V7 C24,5,23.3,3.2,22.1,2z M21.8,17c0,1.5-0.5,2.7-1.3,3.5c-0.9,0.8-2.1,1.3-3.6,1.3H7.1c-1.4,0-2.7-0.4-3.5-1.3 c-0.9-0.9-1.3-2.1-1.3-3.6V7c0-1.5,0.4-2.7,1.3-3.5c0.7-0.8,2-1.3,3.4-1.3h10c1.4,0,2.7,0.5,3.5,1.3c0.8,0.9,1.3,2.1,1.3,3.5V17z"></path>
</svg>