<svg viewBox="0 0 35 30" fill="none" xmlns="http://www.w3.org/2000/svg">
    <path d="M24.9888 7.14158C23.3006 7.14158 21.887 5.96918 21.5118 4.39482C19.4618 4.68289 17.8807 6.45154 17.8807 8.57526V8.58866C21.0563 8.70925 23.9504 9.60027 26.2483 11.0205C27.0924 10.3707 28.151 9.98214 29.2966 9.98214C32.0634 9.98214 34.301 12.2197 34.301 14.9866C34.301 16.983 33.1353 18.7048 31.4404 19.5087C31.2796 25.3238 24.9419 30 17.1572 30C9.37249 30 3.04824 25.3305 2.88075 19.5221C1.1791 18.7249 0 16.9964 0 14.9866C0 12.2197 2.23761 9.98214 5.00447 9.98214C6.15677 9.98214 7.21527 10.3707 8.0661 11.0272C10.3439 9.61367 13.2113 8.72264 16.3533 8.58866V8.56856C16.3533 5.60071 18.611 3.14873 21.4984 2.84055C21.8267 1.21929 23.2604 0 24.9888 0C26.9585 0 28.5596 1.60116 28.5596 3.57079C28.5596 5.54042 26.9585 7.14158 24.9888 7.14158ZM10.5516 14.9598C9.15141 14.9598 7.94551 16.3533 7.85842 18.1688C7.77133 19.9844 9.00402 20.7213 10.4042 20.7213C11.8044 20.7213 12.8562 20.0648 12.9366 18.2492C13.017 16.4337 11.9518 14.9598 10.5449 14.9598H10.5516ZM26.4627 18.1621C26.3823 16.3466 25.1764 14.9531 23.7695 14.9531C22.3627 14.9531 21.2975 16.427 21.3778 18.2425C21.4582 20.0581 22.51 20.7146 23.9102 20.7146C25.3104 20.7146 26.5431 19.9777 26.456 18.1621H26.4627ZM22.4364 22.9053C22.5368 22.6641 22.3694 22.3895 22.1081 22.3627C20.5672 22.2086 18.8991 22.1215 17.1639 22.1215C15.4288 22.1215 13.7606 22.2086 12.2197 22.3627C11.9585 22.3895 11.791 22.6641 11.8915 22.9053C12.7557 24.9687 14.7923 26.4158 17.1639 26.4158C19.5355 26.4158 21.5721 24.9687 22.4364 22.9053Z" fill="white" />
</svg>